<svg width="561" height="489" viewBox="0 0 561 489" fill="none" xmlns="http://www.w3.org/2000/svg">
<path d="M425.231 29.8535L425.531 40.4611L91.6145 51.0089L91.3139 40.4013C91.0249 30.2205 99.3595 21.7036 109.928 21.3691L405.583 12.0336C416.151 11.699 424.942 19.68 425.231 29.8535Z" fill="#FFD0D2"/>
<path fill-rule="evenodd" clip-rule="evenodd" d="M386.122 27.4915C386.308 29.407 384.905 31.1103 382.989 31.2953C381.073 31.4804 379.37 30.0774 379.185 28.1619C379 26.2462 380.403 24.5435 382.319 24.3584C384.234 24.173 385.937 25.5758 386.122 27.4915ZM397.685 27.1943C397.87 29.11 396.467 30.8132 394.552 30.9983C392.636 31.1834 390.933 29.7804 390.748 27.865C390.563 25.9493 391.965 24.2466 393.881 24.0614C395.797 23.8761 397.5 25.2787 397.685 27.1943ZM409.247 26.8974C409.432 28.8131 408.03 30.5162 406.114 30.7014C404.198 30.8865 402.495 29.4835 402.31 27.568C402.125 25.6524 403.528 23.9496 405.444 23.7645C407.359 23.5791 409.062 24.9817 409.247 26.8974Z" fill="#C52127"/>
<path d="M425.531 40.4629L430.436 214.651L430.737 225.259C431.026 235.44 422.691 243.957 412.123 244.291L116.468 253.627C105.9 253.961 97.1086 245.981 96.8202 235.807L96.5196 225.199L91.6143 51.0109L425.531 40.4629Z" fill="#F5EBEF"/>
<path opacity="0.5" d="M430.732 225.261C431.028 235.435 422.687 243.954 412.121 244.293L116.471 253.624C105.897 253.963 97.1058 245.98 96.8179 235.806L96.516 225.201L91.8037 58.1855C144.509 62.339 336.312 70.0701 426.3 67.8113L430.438 214.649L430.732 225.261Z" fill="#FFD0D2"/>
<path d="M67.5967 439.461C67.5967 417.776 551.135 416.352 560.416 441.222C569.374 465.224 473.069 495.446 426.725 487.562C380.381 479.678 324.717 471.621 279.817 471.931C234.917 472.241 67.5967 452.853 67.5967 439.461Z" fill="#FFC9CB" fill-opacity="0.32"/>
<path d="M503.91 54.4256C492.731 16.894 454.621 -15.7753 444.467 8.17918C438.089 23.2249 466.971 26.9991 480.852 48.6439C490.396 63.5263 508.134 68.6078 503.91 54.4256Z" fill="#FFD0D2" fill-opacity="0.4"/>
<path d="M472.493 51.3766C474.442 47.3566 471.014 41.6706 464.837 38.6764C458.659 35.6823 452.072 36.5138 450.124 40.5337C448.175 44.5537 451.603 50.2397 457.781 53.2339C463.958 56.2281 470.545 55.3965 472.493 51.3766Z" fill="#FFD0D2" fill-opacity="0.4"/>
<path d="M72.0406 46.551C75.4308 39.5567 69.4663 29.6634 58.7184 24.4538C47.9705 19.2442 36.5092 20.6909 33.119 27.6853C29.7288 34.6796 35.6934 44.5729 46.4413 49.7825C57.1892 54.9921 68.6504 53.5453 72.0406 46.551Z" fill="#FFD0D2" fill-opacity="0.4"/>
<path d="M494.607 68.0984C496.942 62.9853 509.128 66.8256 505.302 73.1618C501.476 79.4982 493.402 70.7354 494.607 68.0984Z" fill="#FFD0D2" fill-opacity="0.4"/>
<path d="M28.2525 405.144C12.6717 405.144 0 392.466 0 376.885V112.626C0 97.0477 12.6717 84.373 28.2525 84.373H471.954C487.536 84.373 500.207 97.0477 500.207 112.626V376.886C500.207 392.467 487.536 405.144 471.954 405.144L28.2525 405.144Z" fill="#E68184"/>
<path d="M489.198 112.648V376.884C489.198 386.419 481.461 394.106 471.975 394.106H28.2709C18.7355 394.106 10.998 386.419 10.998 376.884V112.648C10.998 103.113 18.7355 95.375 28.2709 95.375H471.975C481.461 95.375 489.198 103.113 489.198 112.648Z" fill="#FFD0D2"/>
<path opacity="0.2" d="M415.6 92.6449L46.2408 75.1299C33.0378 74.5048 21.8115 84.2965 21.1682 97.0122L20.497 110.261L9.43654 327.814L8.76528 341.063C8.12159 353.77 18.2904 364.582 31.4933 365.207L400.852 382.722C414.055 383.347 425.281 373.556 425.925 360.84L426.596 347.591L437.657 130.038L438.328 116.789C438.971 104.082 428.802 93.27 415.6 92.6449Z" fill="#FF8A8F"/>
<path d="M432.447 104.593L431.776 117.842L14.6162 98.0656L15.2875 84.8169C15.9309 72.1014 27.1571 62.3095 40.3602 62.9346L409.719 80.4496C422.922 81.0745 433.091 91.887 432.447 104.593Z" fill="#FA9598"/>
<path d="M431.776 117.841L420.715 335.395L420.044 348.643C419.4 361.359 408.174 371.151 394.971 370.526L25.6124 353.011C12.4095 352.385 2.24073 341.573 2.88442 328.867L3.55568 315.618L14.6161 98.0645L431.776 117.841Z" fill="white"/>
<path opacity="0.25" d="M431.775 117.841L420.712 335.393L420.042 348.642C419.402 361.361 408.177 371.15 394.973 370.525L25.6113 353.007C12.4066 352.388 2.24191 341.576 2.88218 328.865L3.08847 324.831L339.769 340.796C352.974 341.421 364.199 331.632 364.846 318.913L365.516 305.665L375.202 115.162L431.775 117.841Z" fill="#FFD0D2"/>
<path opacity="0.25" fill-rule="evenodd" clip-rule="evenodd" d="M50.1073 81.218C50.1073 84.1731 47.7119 86.5683 44.7571 86.5683C41.8021 86.5683 39.4062 84.1731 39.4062 81.218C39.4062 78.2626 41.8023 75.8672 44.7571 75.8672C47.7119 75.8674 50.1073 78.2626 50.1073 81.218Z" fill="#931F26"/>
<path fill-rule="evenodd" clip-rule="evenodd" d="M48.9482 79.7916C48.9482 82.7465 46.5528 85.1425 43.5979 85.1425C40.6425 85.1425 38.2471 82.7467 38.2471 79.7916C38.2471 76.8366 40.6425 74.4414 43.5979 74.4414C46.5528 74.4412 48.9482 76.8366 48.9482 79.7916Z" fill="#C52127"/>
<path opacity="0.25" fill-rule="evenodd" clip-rule="evenodd" d="M67.8232 82.472C67.8232 85.427 65.4278 87.8222 62.4729 87.8222C59.5179 87.8222 57.1221 85.427 57.1221 82.472C57.1221 79.5165 59.5181 77.1211 62.4729 77.1211C65.4278 77.1211 67.8232 79.5165 67.8232 82.472Z" fill="#931F26"/>
<path fill-rule="evenodd" clip-rule="evenodd" d="M66.664 81.0455C66.664 84.0004 64.2686 86.3964 61.3138 86.3964C58.3583 86.3964 55.9629 84.0004 55.9629 81.0455C55.9629 78.0907 58.3583 75.6953 61.3138 75.6953C64.2686 75.6953 66.664 78.0907 66.664 81.0455Z" fill="#C52127"/>
<path opacity="0.25" fill-rule="evenodd" clip-rule="evenodd" d="M85.537 83.7298C85.537 86.6848 83.1416 89.08 80.1868 89.08C77.232 89.08 74.8359 86.6848 74.8359 83.7298C74.8359 80.7743 77.232 78.3789 80.1868 78.3789C83.1416 78.3789 85.537 80.7743 85.537 83.7298Z" fill="#931F26"/>
<path fill-rule="evenodd" clip-rule="evenodd" d="M84.3778 82.3014C84.3778 85.2562 81.9825 87.6523 79.0276 87.6523C76.0721 87.6523 73.6768 85.2562 73.6768 82.3014C73.6768 79.3463 76.0721 76.9512 79.0276 76.9512C81.9825 76.9512 84.3778 79.3465 84.3778 82.3014Z" fill="#C52127"/>
<path d="M452.438 121.447C453.037 121.835 453.943 122.223 453.976 122.394C454.009 122.566 446.724 137.125 446.105 137.423C445.485 137.72 442.118 137.186 442.302 135.906C442.486 134.627 452.438 121.447 452.438 121.447Z" fill="#D66D53"/>
<path d="M429.896 153.319C445.811 159.451 448.261 169.092 449.567 172.179C449.567 172.179 488.673 108.475 455.339 119.644C452.741 120.515 446.803 135.712 429.896 153.319Z" fill="#FF9C83"/>
<path d="M451.644 431.027L451.911 452.46L464.561 452.847L466.732 431.078L451.644 431.027Z" fill="#D7A28E"/>
<path d="M464.791 446.166C459.88 450.346 452.093 447.534 451.785 443.443C451.538 440.162 446.964 446.958 442.331 453.424C439.272 457.69 420.227 457.613 423.569 467.318C425.513 472.964 458.62 467.671 466.479 461.353C467.946 460.173 467.647 443.71 464.791 446.166Z" fill="#121212"/>
<path d="M466.484 461.351C458.617 467.669 425.516 472.961 423.57 467.313C423.343 466.664 423.22 466.06 423.188 465.49C440.332 470.859 462.325 461.681 463.952 458.6C465.018 456.591 465.426 450.322 465.59 445.971C467.686 446.927 467.795 460.29 466.484 461.351Z" fill="#1C2959"/>
<path d="M438.866 234.389H494.845L467.834 439.188C467.834 439.188 461.693 446.712 449.066 438.69L438.866 234.389Z" fill="#121535"/>
<path opacity="0.5" d="M465.723 327.549C461.435 323.383 442.456 323.278 449.181 326.502C455.906 329.726 467.764 329.532 465.723 327.549ZM462.385 330.721C455.101 329.728 447.656 334.124 452.139 334.881C456.622 335.637 465.16 331.099 462.385 330.721ZM494.842 234.393L480.842 340.578C478.018 313.855 464.817 258.62 458.834 234.393H494.842Z" fill="#3D3C3C"/>
<path d="M509.576 432.285L512.093 453.571L524.714 452.627L524.586 430.75L509.576 432.285Z" fill="#D7A28E"/>
<path d="M524.242 445.958C519.798 450.63 511.759 448.652 511.022 444.616C510.432 441.38 506.598 448.618 502.669 455.535C500.076 460.099 481.128 462.023 485.47 471.323C487.997 476.734 520.365 467.992 527.516 460.884C528.851 459.557 526.824 443.216 524.242 445.958Z" fill="#121212"/>
<path d="M527.519 460.882C520.36 467.991 487.998 476.73 485.469 471.319C485.175 470.697 484.99 470.108 484.897 469.545C502.511 473.083 523.419 461.646 524.713 458.411C525.561 456.302 525.309 450.025 525.015 445.68C527.2 446.411 528.713 459.688 527.519 460.882Z" fill="#1C2959"/>
<path d="M465.103 240.45L520.362 231.502L526.433 437.986C526.433 437.986 519.024 443.819 507.679 441.264L465.103 240.45Z" fill="#121535"/>
<path opacity="0.5" d="M526.438 437.988C526.438 437.988 524.161 440.475 519.429 441.265C524.967 389.803 510.346 270.576 505.539 233.904L520.362 231.5L526.438 437.988ZM490.679 329.421C494.135 324.541 512.776 320.972 506.753 325.37C500.729 329.768 489.035 331.742 490.679 329.421ZM494.54 331.929C501.521 329.623 509.643 332.586 505.374 334.148C501.105 335.71 491.881 332.808 494.54 331.929Z" fill="#3D3C3C"/>
<path d="M437.687 237.871C444.695 244.88 521.178 239.744 524.714 235.324C528.25 230.905 500.738 117.973 498.36 116.455C495.981 114.938 474.277 106.275 455.339 119.645C447.074 123.825 437.687 237.871 437.687 237.871Z" fill="#FF9C83"/>
<path opacity="0.5" d="M524.716 235.327C521.178 239.738 444.699 244.881 437.69 237.873C437.69 237.873 447.077 123.822 455.338 119.646C458.119 117.679 460.968 116.192 463.8 115.091C464.077 121.049 464.917 134.705 466.859 137.637C469.355 141.419 473.388 141.049 473.388 141.049C473.388 141.049 488.969 141.048 489.439 113.436C494.203 114.461 497.514 115.915 498.363 116.452C500.741 117.973 528.254 230.906 524.716 235.327Z" fill="#CD6A51"/>
<path d="M453.284 71.5732C453.284 71.5732 449.842 75.4212 451.045 78.8325C452.248 82.2433 471.536 86.4614 471.536 86.4614L474.54 100.901C474.54 100.901 477.74 103.536 478.909 98.6493C478.909 98.6493 482.865 98.5163 481.543 91.808C481.543 91.808 483.451 89.2704 484.568 84.1902C484.141 82.611 484.838 80.2178 483.058 76.8283C481.277 73.4389 462.474 68.5122 453.284 71.5732Z" fill="#1C2959"/>
<path d="M467.354 93.8449L465.834 115.207C465.834 115.207 476.825 120.075 480.949 110.586L477.206 90.0332L467.354 93.8449Z" fill="#D7A28E"/>
<path d="M474.438 98.1504C474.438 98.1504 474.457 112.118 465.827 114.396L466.767 103.214L474.438 98.1504Z" fill="#CE9784"/>
<path d="M477.828 79.2372C477.777 80.4104 477.524 92.4846 477.524 92.4846L477.524 92.492C475.449 100.492 470.252 106.866 461.484 106.122C452.533 105.369 449.299 89.5847 452.338 74.5415C459.916 70.9283 472.243 76.7233 472.243 76.7233C473.434 80.3661 475.941 84.4061 477.828 79.2372Z" fill="#D7A28E"/>
<path d="M474.979 77.793C474.979 77.793 473.699 91.4835 472.005 95.113C470.311 98.7423 470.311 95.8388 464.867 94.508C459.423 93.1773 451.559 94.508 452.89 98.1376C454.221 101.767 455.189 107.695 465.109 107.211C475.029 106.727 477.812 90.0322 477.812 90.0322L477.929 79.5808L474.979 77.793Z" fill="#1C2959"/>
<path d="M480.703 109.412C480.703 109.412 476.897 115.515 470.983 114.879C466.144 114.357 466.078 111.604 466.078 111.604C466.078 111.604 465.017 113.947 464.73 114.604C464.832 115.588 465.356 120.065 471.464 119.827C480.8 119.462 483.823 112.796 483.823 112.796L480.703 109.412Z" fill="#D66D53"/>
<path d="M486.375 81.6761C486.375 81.6761 490.451 63.2048 478.383 59.31C466.314 55.4154 457.569 60.2686 457.569 60.2686L451.397 68.7757C451.397 68.7757 476.295 73.4029 486.375 81.6761Z" fill="#EB962C"/>
<path opacity="0.5" d="M486.384 81.685C476.291 73.4076 451.398 68.7767 451.398 68.7767L457.574 60.2688C457.574 60.2688 461.592 58.0369 467.944 57.8105C462.262 61.1947 459.918 67.5819 461.917 68.639C464.758 70.1547 481.499 75.584 483.764 73.2774C485.463 71.5851 484.477 66.2629 483.904 63.2236C488.962 69.9512 486.384 81.685 486.384 81.685Z" fill="#D88225"/>
<path d="M469.752 69.2928C469.752 69.2928 472.206 60.6608 477.75 59.1219C477.75 59.1219 470.324 56.6412 463.6 57.9651C457.886 59.0902 454.724 67.9624 454.724 67.9624L469.752 69.2928Z" fill="#EB962C"/>
<path d="M458.637 64.0917L469.602 65.2816C469.602 65.2816 473.377 57.2775 478.338 59.3471L475.607 55.8396L468.227 55.0664L462.624 57.9451L458.672 63.3616L458.637 64.0917Z" fill="#D88225"/>
<path d="M463.283 57.8921C463.283 57.8921 470.129 58.5849 471.434 58.7055C471.287 58.9347 469.232 62.5928 469.133 63.9283L459.384 63.1918C459.384 63.1918 466.361 63.1482 467.301 62.3498C468.241 61.5513 469.083 60.9055 468.047 59.9001C467.01 58.8943 463.283 57.8921 463.283 57.8921ZM464.091 57.5376C464.091 57.5376 471.372 58.3696 471.493 58.3136C471.614 58.2572 475.229 56.0572 475.161 56.0499C475.093 56.0429 468.449 55.2773 468.449 55.2773L464.091 57.5376Z" fill="#EB962C"/>
<path d="M471.618 71.9336C471.618 71.9336 486.922 78.7974 487.226 81.1534C487.53 83.5095 483.844 85.9978 483.844 85.9978L484.349 84.0937C484.349 84.0937 476.756 78.3439 473.065 76.7949C469.375 75.2461 471.618 71.9336 471.618 71.9336Z" fill="#D88225"/>
<path d="M476.362 89.8562C474.882 87.8125 476.286 81.8476 477.86 79.8757C478.919 78.5482 482.832 78.7126 483.938 81.7784C485.099 84.994 482.319 88.8371 479.216 90.2564C478.199 90.7218 476.932 90.6444 476.362 89.8562Z" fill="#D7A28E"/>
<path d="M478.257 85.7641C478.497 84.3164 482.09 82.0089 482.316 82.5144C482.316 82.5144 479.788 84.245 479.878 85.0357C479.967 85.8263 480.78 85.9484 479.974 86.4106C479.168 86.8723 478.059 86.9561 478.257 85.7641Z" fill="#1C2959"/>
<path d="M445.597 70.4319C445.597 70.4319 445.335 68.2638 446.264 67.5662C447.193 66.8685 456.779 64.6929 466.644 67.4391C476.509 70.1852 475.356 76.6189 475.356 76.6189L474.978 77.7923L465.657 71.413L445.597 70.4319Z" fill="#D88225"/>
<path d="M451.072 74.7959C451.072 74.7959 462.826 72.3579 474.978 77.7905C474.978 77.7905 476.211 70.9536 466.68 68.3684C459.513 66.4247 447.433 66.3412 445.797 69.1053C444.162 71.8701 451.072 74.7959 451.072 74.7959Z" fill="#FEAA32"/>
<path d="M462.273 84.0399C461.599 84.8399 461.888 87.6849 461.219 88.1062C460.551 88.5276 459.253 87.8366 459.299 88.8613C459.347 89.8857 461.427 91.4007 461.657 91.0044C461.886 90.6087 460.746 89.4827 460.746 89.4827C460.746 89.4827 461.772 89.363 462.19 88.7159C462.609 88.0684 462.876 83.3246 462.273 84.0399ZM469.321 83.8841C469.182 84.6744 468.405 85.2144 467.602 85.0599C466.813 84.9066 466.272 84.1436 466.427 83.3409C466.578 82.5659 467.297 82.0482 468.076 82.1581C467.935 82.2844 467.818 82.4558 467.782 82.6636C467.691 83.1342 468.01 83.5917 468.481 83.6829C468.814 83.7319 469.138 83.6109 469.319 83.3612C469.359 83.5209 469.354 83.7041 469.321 83.8841ZM460.402 77.4744C459.925 77.1571 459.402 77.0128 458.858 76.9017C458.315 76.7969 457.737 76.7183 457.183 76.6659C456.067 76.5693 454.973 76.5417 453.855 76.9446C453.77 76.9739 453.485 76.5932 453.562 76.5171C454.029 76.038 454.647 75.6834 455.301 75.4865C455.955 75.2842 456.644 75.2263 457.31 75.2815C457.979 75.3379 458.619 75.492 459.244 75.7706C459.861 76.0481 460.47 76.4983 460.808 77.1208C460.866 77.2262 460.476 77.5223 460.402 77.4744ZM457.457 82.6016C457.318 83.3922 456.541 83.9322 455.739 83.7774C454.95 83.6241 454.409 82.8612 454.563 82.0589C454.715 81.2833 455.433 80.7659 456.212 80.876C456.072 81.0022 455.955 81.1736 455.919 81.3814C455.827 81.8519 456.146 82.3092 456.617 82.4005C456.951 82.4499 457.274 82.3284 457.456 82.079C457.496 82.2384 457.491 82.4216 457.457 82.6016ZM470.528 78.5358C470.052 78.2186 469.528 78.0738 468.985 77.9627C468.441 77.8581 467.863 77.7795 467.309 77.7271C466.194 77.6302 465.1 77.6027 463.982 78.0056C463.896 78.0351 463.611 77.6542 463.689 77.5783C464.156 77.0992 464.774 76.7443 465.428 76.5477C466.082 76.3454 466.771 76.2873 467.436 76.3427C468.106 76.3993 468.745 76.553 469.371 76.832C469.988 77.1093 470.597 77.5597 470.934 78.182C470.993 78.2872 470.602 78.5835 470.528 78.5358Z" fill="#1C2959"/>
<path d="M458.453 99.0597C459.015 99.1672 459.554 99.0978 460.098 98.9894C460.64 98.8748 461.203 98.723 461.734 98.5569C462.799 98.2133 463.818 97.8144 464.692 97.0096C464.76 96.9493 465.17 97.1896 465.129 97.2896C464.884 97.9126 464.452 98.4793 463.926 98.9139C463.401 99.3543 462.788 99.6747 462.154 99.8819C461.514 100.089 460.866 100.196 460.181 100.181C459.504 100.165 458.768 99.986 458.216 99.5431C458.121 99.4689 458.367 99.0443 458.453 99.0597Z" fill="#F2F6F9"/>
<path d="M469.984 151.964C477.831 162.567 464.452 218.188 469.276 241.768C452.679 241.365 437.166 240.424 436.612 238.844C435.477 235.625 443.923 169.895 443.923 169.895C456.94 148.844 456.811 118.214 456.811 118.214C456.811 118.214 460.242 114.81 462.628 115.567C465.007 116.315 462.326 148.844 464.528 149.222C465.486 149.39 468.07 149.378 469.984 151.964Z" fill="#FEAA32"/>
<path d="M469.279 241.773C452.682 241.369 437.17 240.428 436.615 238.849C436.035 237.21 437.943 219.378 439.951 202.26C453.699 206.832 463.346 198.462 463.867 183.865C464.304 171.89 452.296 167 446.472 165.336C452.405 153.63 454.935 140.042 456.01 130.479C457.8 133.949 460.363 137.831 463.59 139.924C463.598 145.109 463.767 149.092 464.531 149.226C465.489 149.395 468.069 149.378 469.985 151.966C477.834 162.571 464.455 218.193 469.279 241.773Z" fill="#EB962C"/>
<path d="M527.192 235.322C526.277 239.176 517.536 239.978 509.78 241.314C506.763 241.835 495.301 242.071 482.351 241.961C477.452 217.856 476.37 168.348 479.849 155.323C480.463 153.024 483.923 151.474 486.402 150.281C490.494 143.356 491.192 113.499 491.192 113.499C492.267 112.188 498.25 115.6 498.25 115.6C492.015 163.591 515.646 175.503 515.646 175.503C515.646 175.503 520.455 202.389 523.87 220.125C524.229 221.99 527.19 222.111 527.242 224.474C527.268 225.721 525.397 227.268 525.572 228.35C526.274 232.692 528.219 230.997 527.192 235.322Z" fill="#FEAA32"/>
<path d="M527.195 235.327C526.279 239.176 517.54 239.982 509.783 241.318C506.766 241.839 495.304 242.075 482.354 241.966C477.455 217.856 476.371 168.352 479.85 155.327C480.371 153.36 492.233 158.243 494.846 179.419C496.267 190.941 493.372 199.654 498.472 204.755C501.632 207.915 512.766 204.192 520.523 202.285C520.934 204.511 521.346 206.772 521.766 208.999C512.665 214.864 497.909 221.444 502.648 221.587C509.254 221.772 521.354 217.427 518.329 219.696C515.304 221.965 492.186 224.419 498.17 226.881C504.144 229.335 514.733 230.074 509.438 231.503C504.144 232.932 485.808 231.604 493.556 235.385C500.758 238.898 518.59 238.15 527.438 232.797C527.539 233.327 527.489 234.075 527.195 235.327Z" fill="#EB962C"/>
<path d="M438.23 212.027C442.817 215.533 451.858 214.674 451.858 216.186C451.858 217.699 454.505 224.506 451.858 224.695C449.211 224.884 437.365 224.559 436.67 223.02C435.975 221.48 437.49 211.461 438.23 212.027ZM522.059 210.719C517.472 214.225 507.57 212.922 507.57 214.434C507.57 215.947 504.923 222.754 507.57 222.943C510.217 223.132 523.221 222.243 523.916 220.703C524.611 219.164 522.799 210.153 522.059 210.719Z" fill="#D88225"/>
<path d="M502.727 176.61L491.844 175.608C490.718 170.18 488.567 165.138 485.626 160.65L492.631 152.232C493.123 151.641 493.083 150.772 492.539 150.228L483.419 141.107C482.875 140.563 482.005 140.523 481.414 141.016L472.996 148.028C468.508 145.079 463.466 142.936 458.046 141.802L457.045 130.919C456.974 130.152 456.331 129.566 455.562 129.566H442.665C441.895 129.566 441.253 130.153 441.182 130.919L440.18 141.802C434.752 142.936 429.718 145.079 425.223 148.028L416.805 141.016C416.213 140.523 415.344 140.563 414.799 141.107L405.68 150.227C405.135 150.771 405.096 151.641 405.588 152.232L412.601 160.65C409.651 165.138 407.509 170.188 406.374 175.608L395.491 176.61C394.725 176.681 394.139 177.323 394.139 178.092V190.99C394.139 191.759 394.725 192.402 395.491 192.472L406.374 193.474C407.509 198.903 409.651 203.953 412.601 208.432L405.588 216.858C405.095 217.45 405.135 218.319 405.68 218.863L414.8 227.977C415.344 228.52 416.213 228.56 416.804 228.068L425.223 221.062C425.224 221.062 425.225 221.062 425.226 221.062C429.709 224.002 434.746 226.151 440.181 227.281L440.351 238.135C440.364 238.948 441.027 239.6 441.84 239.6H456.388C457.201 239.6 457.864 238.948 457.876 238.135L458.047 227.281C460.484 226.777 469.316 224.751 472.996 221.062L481.414 228.068C482.006 228.56 482.875 228.52 483.419 227.977L492.539 218.863C493.084 218.319 493.124 217.45 492.632 216.858L485.626 208.432C488.568 203.953 490.719 198.903 491.845 193.474L502.728 192.472C503.494 192.402 504.08 191.759 504.08 190.99V178.092C504.08 177.323 503.494 176.681 502.727 176.61ZM449.105 207.23C436.601 207.23 426.466 197.087 426.466 184.583C426.466 172.079 436.6 161.945 449.105 161.945C461.617 161.945 471.744 172.079 471.744 184.583C471.744 197.087 461.617 207.23 449.105 207.23Z" fill="#C52127"/>
<path d="M497.721 179.138L489.377 178.364L488.93 176.213C487.903 171.263 485.953 166.581 483.139 162.279L481.926 160.433L487.3 153.98C488.528 152.498 488.432 150.325 487.07 148.963L484.68 146.573C483.318 145.211 481.145 145.115 479.664 146.343L473.203 151.724L471.364 150.511C467.084 147.705 462.403 145.747 457.438 144.713L455.287 144.259L454.513 135.922C454.342 134.002 452.734 132.543 450.806 132.543H447.419C445.492 132.543 443.891 134.002 443.713 135.922L442.946 144.259L440.788 144.713C435.83 145.747 431.149 147.697 426.854 150.511L425.016 151.724L418.555 146.343C417.073 145.115 414.9 145.211 413.546 146.573L411.149 148.963C409.787 150.325 409.69 152.498 410.925 153.98L416.299 160.441L415.086 162.279C412.28 166.551 410.33 171.241 409.288 176.213L408.841 178.371L400.497 179.138C398.584 179.309 397.118 180.917 397.118 182.845V186.231C397.118 188.159 398.584 189.76 400.497 189.938L408.841 190.705L409.288 192.863C410.33 197.843 412.28 202.525 415.086 206.79L416.299 208.636L410.918 215.104C409.69 216.585 409.787 218.759 411.149 220.113L413.546 222.51C414.9 223.865 417.074 223.969 418.555 222.733L425.001 217.374L427.189 218.781C431.387 221.483 435.965 223.359 440.788 224.363L443.118 224.847L443.252 232.953C443.281 234.985 444.934 236.622 446.966 236.622H451.261C453.293 236.622 454.945 234.985 454.982 232.953L455.109 224.847L457.446 224.363C462.128 223.396 468.455 221.394 470.889 218.952L472.809 217.032L479.664 222.733C481.145 223.969 483.319 223.865 484.681 222.51L487.07 220.113C488.432 218.751 488.536 216.578 487.301 215.104L481.927 208.636L483.14 206.797C485.954 202.503 487.904 197.821 488.931 192.863L489.377 190.705L497.721 189.938C499.642 189.76 501.101 188.159 501.101 186.231V182.845C501.1 180.917 499.641 179.309 497.721 179.138ZM446.332 210.057C434.453 208.799 424.903 199.257 423.638 187.378C421.941 171.434 434.966 157.999 450.783 159.019C463.526 159.837 473.858 170.176 474.669 182.912C475.674 198.721 462.254 211.74 446.332 210.057Z" fill="#FFE0D8"/>
<path d="M447.347 200.727C439.821 199.93 433.77 193.885 432.968 186.358C431.893 176.256 440.146 167.744 450.168 168.39C458.241 168.909 464.787 175.459 465.301 183.528C465.938 193.545 457.435 201.793 447.347 200.727Z" fill="#C52127"/>
<path d="M447.345 200.729C442.535 200.218 438.329 197.565 435.719 193.747C437.847 195.185 440.335 196.127 443.01 196.415C453.098 197.479 461.597 189.232 460.964 179.215C460.77 176.239 459.763 173.477 458.16 171.141C462.208 173.88 464.976 178.396 465.3 183.53C465.94 193.546 457.434 201.793 447.345 200.729Z" fill="#C52127"/>
<path d="M449.105 154.58C432.542 154.58 419.104 168.009 419.104 184.58C419.104 201.151 432.542 214.588 449.105 214.588C465.676 214.588 479.113 201.151 479.113 184.58C479.113 168.009 465.676 154.58 449.105 154.58ZM449.105 207.227C436.6 207.227 426.466 197.084 426.466 184.58C426.466 172.076 436.6 161.941 449.105 161.941C461.617 161.941 471.743 172.076 471.743 184.58C471.743 197.084 461.617 207.227 449.105 207.227Z" fill="#C52127"/>
<path d="M533.587 156.114C518.654 159.24 512.226 167.87 510.629 170.408L510.486 170.148C510.486 170.148 496.99 147.022 498.251 115.602C498.251 115.602 521.192 138.139 533.587 156.114Z" fill="#FF9C83"/>
<path opacity="0.5" d="M523.238 159.656C523.557 158.614 523.582 157.614 523.238 156.673C520.633 149.555 505.708 126.093 500.204 117.547C505.994 123.387 523.372 141.303 533.591 156.118C529.54 156.967 526.112 158.219 523.238 159.656Z" fill="#CD6A51"/>
<path d="M506.885 123.824C506.349 124.36 505.498 124.959 505.498 125.148C505.498 125.337 515.834 139.328 516.527 139.517C517.221 139.706 520.561 138.446 520.12 137.122C519.679 135.799 506.885 123.824 506.885 123.824Z" fill="#D66D53"/>
<path d="M409.232 161.193C409.232 161.193 407.098 158.766 411.142 157.188C415.187 155.61 416.751 158.061 415.945 159.214C415.139 160.366 414.708 161.165 412.322 161.025C412.322 161.025 414.135 162.041 413.424 163.467C412.713 164.894 411.16 165.214 411.16 165.214C411.16 165.214 412.958 165.783 412.968 166.597C412.979 167.411 411.654 168.982 409.584 169.044C409.584 169.044 411.3 170.285 409.355 171.875C407.409 173.465 407.312 172.651 407.312 172.651L406.34 175.422C406.34 175.422 403.18 172.967 406.003 169.251C406.003 169.251 404.422 166.677 407.774 165.527C407.774 165.526 405.276 162.216 409.232 161.193Z" fill="#D7A28E"/>
<path d="M409.265 161.215C409.312 161.344 410.006 161.173 410.861 161.142C411.717 161.097 412.407 161.218 412.45 161.105C412.504 160.982 411.783 160.636 410.841 160.684C409.897 160.721 409.219 161.11 409.265 161.215ZM407.684 165.493C407.712 165.554 407.905 165.53 408.211 165.504C408.518 165.477 408.943 165.451 409.418 165.428C410.368 165.381 411.152 165.343 411.161 165.214C411.171 165.09 410.383 164.923 409.396 164.97C408.902 164.994 408.454 165.074 408.141 165.188C407.826 165.301 407.659 165.44 407.684 165.493ZM406.004 169.25C406.04 169.31 406.237 169.252 406.553 169.203C406.87 169.156 407.314 169.127 407.813 169.135C408.812 169.146 409.638 169.237 409.665 169.11C409.694 168.991 408.882 168.69 407.817 168.677C407.287 168.669 406.798 168.753 406.466 168.891C406.132 169.032 405.973 169.203 406.004 169.25Z" fill="#CE9784"/>
<path d="M540.704 190.799C537.066 196.598 483.65 229.641 483.65 229.641C483.65 229.641 477.506 234.289 476.286 232.505C475.153 230.837 476.221 230.498 476.753 230.059C476.062 230.52 473.553 231.949 472.65 230.348C471.755 228.772 473.28 227.335 473.968 226.79C473.105 227.358 470.117 229.118 469.171 227.249C468.198 225.34 471.454 223.302 471.956 222.974C471.494 223.234 467.79 225.276 466.925 223.321C466.388 222.112 471.579 217.059 475.241 214.724C475.148 213.954 471.831 209.109 474.229 208.885C476.618 208.661 482.041 212.425 482.041 212.425L516.447 181.773L509.825 170.192C511.334 167.602 517.467 158.759 532.286 155.129C539.509 165.718 543.599 186.186 540.704 190.799Z" fill="#D7A28E"/>
<path d="M540.703 190.801C540.025 191.884 537.605 193.916 534.127 196.506C540.088 182.582 531.419 166.438 525.147 157.519C527.269 156.598 529.638 155.786 532.289 155.133C539.509 165.718 543.599 186.188 540.703 190.801Z" fill="#CE9784"/>
<path d="M508.288 168.947C508.288 168.947 509.918 171.763 511.143 172.058C512.368 172.352 518.905 162.961 525.027 160.63C531.149 158.298 535.183 158.487 534.931 156.848C534.679 155.209 533.103 151.554 531.906 151.365C530.708 151.176 513.473 155.899 508.288 168.947Z" fill="#D66D53"/>
<path d="M517.222 182.472C517.131 182.563 517.287 182.662 517.616 182.758C518.245 183.352 522.066 185.133 522.659 184.61C522.937 184.364 522.648 183.801 522.004 183.295C524.187 183.393 526.339 183.282 526.574 182.721C527.08 181.511 520.573 179.123 517.222 182.472Z" fill="#CE9784"/>
<path d="M154.906 216.132L142.451 215.53L141.676 231.58L118.556 230.464L119.332 214.414L75.0156 212.273L75.7615 196.823L115.901 146.301L140.454 147.487L103.949 194.824L120.96 195.645L121.649 181.393L144.047 182.474L143.359 196.728L155.814 197.329L154.906 216.132ZM176.93 229.803C171.508 226.099 167.375 220.878 164.539 214.138C161.703 207.397 160.503 199.517 160.939 190.495C161.374 181.47 163.328 173.742 166.801 167.306C170.273 160.871 174.889 156.074 180.644 152.908C186.397 149.748 192.867 148.336 200.059 148.684C207.159 149.026 213.423 151.053 218.853 154.753C224.275 158.46 228.401 163.678 231.237 170.418C234.073 177.159 235.274 185.039 234.838 194.064C234.402 203.086 232.448 210.814 228.975 217.249C225.503 223.685 220.893 228.484 215.139 231.648C209.379 234.811 202.948 236.221 195.847 235.879C188.657 235.531 182.353 233.506 176.93 229.803ZM206.587 211.126C209.123 207.368 210.6 201.295 211.005 192.913C211.41 184.527 210.525 178.344 208.362 174.355C206.193 170.37 203.113 168.279 199.122 168.086C195.046 167.889 191.739 169.671 189.196 173.429C186.653 177.19 185.183 183.261 184.778 191.646C184.373 200.029 185.252 206.215 187.42 210.201C189.59 214.186 192.709 216.278 196.785 216.476C200.776 216.669 204.044 214.884 206.587 211.126Z" fill="#C52127"/>
<path d="M205.469 187.597L221.216 140.647C222.662 136.337 220.143 131.699 215.741 130.557C215.669 130.538 215.597 130.519 215.525 130.5C211.13 129.359 206.699 132.176 205.854 136.638L196.623 185.4L205.469 187.597ZM199.553 192.153C195.881 191.241 191.964 193.457 191.01 197.296C190.098 200.968 192.523 204.76 196.195 205.672C200.034 206.625 203.951 204.409 204.863 200.736C205.817 196.898 203.392 193.106 199.553 192.153Z" fill="#931F26"/>
<path d="M320.787 224.142L308.332 223.54L307.557 239.591L284.437 238.474L285.213 222.424L240.896 220.283L241.643 204.832L281.782 154.311L306.335 155.497L269.83 202.834L286.841 203.656L287.53 189.402L309.928 190.485L309.24 204.737L321.695 205.339L320.787 224.142Z" fill="#C52127"/>
<path d="M161.453 280.683C159.858 280.644 158.475 280.361 157.304 279.833C156.133 279.305 155.236 278.511 154.613 277.454C153.99 276.396 153.698 275.063 153.737 273.453L153.987 263.085C153.991 262.898 154.056 262.747 154.182 262.632C154.307 262.516 154.466 262.46 154.659 262.465L158.05 262.547C158.243 262.551 158.403 262.615 158.532 262.737C158.661 262.858 158.722 263.013 158.718 263.199L158.469 273.542C158.442 274.643 158.693 275.476 159.224 276.039C159.753 276.603 160.518 276.897 161.517 276.921C162.498 276.945 163.271 276.688 163.837 276.151C164.402 275.614 164.698 274.794 164.725 273.693L164.974 263.35C164.979 263.163 165.048 263.012 165.182 262.897C165.317 262.782 165.471 262.726 165.647 262.73L169.064 262.812C169.239 262.817 169.391 262.88 169.52 263.001C169.648 263.123 169.71 263.277 169.706 263.464L169.456 273.832C169.417 275.442 169.06 276.76 168.387 277.786C167.714 278.812 166.784 279.561 165.598 280.032C164.411 280.504 163.03 280.721 161.453 280.683ZM173.445 280.718C173.252 280.713 173.096 280.646 172.977 280.516C172.857 280.386 172.799 280.236 172.803 280.066L173.201 263.548C173.206 263.362 173.271 263.211 173.397 263.095C173.522 262.98 173.681 262.924 173.874 262.928L176.66 262.996C176.958 263.003 177.171 263.072 177.3 263.202C177.428 263.332 177.509 263.432 177.543 263.5L183.721 273.413L183.953 263.807C183.957 263.621 184.022 263.47 184.148 263.354C184.273 263.239 184.432 263.183 184.625 263.188L187.779 263.264C187.972 263.268 188.128 263.331 188.248 263.453C188.368 263.575 188.426 263.729 188.421 263.915L188.024 280.408C188.019 280.595 187.954 280.75 187.828 280.874C187.703 280.998 187.543 281.058 187.35 281.053L184.538 280.985C184.257 280.978 184.053 280.906 183.925 280.767C183.797 280.628 183.716 280.533 183.682 280.481L177.495 270.924L177.272 280.174C177.268 280.344 177.202 280.49 177.077 280.614C176.951 280.739 176.792 280.798 176.599 280.794L173.445 280.718ZM192.345 281.173C192.151 281.169 191.996 281.101 191.876 280.971C191.756 280.841 191.699 280.692 191.703 280.522L192.101 264.004C192.106 263.817 192.17 263.666 192.296 263.551C192.421 263.435 192.58 263.379 192.774 263.384L199.608 263.549C201.325 263.59 202.782 263.892 203.979 264.455C205.175 265.018 206.085 265.82 206.709 266.86C207.332 267.901 207.652 269.176 207.668 270.685C207.668 271.431 207.661 272.083 207.648 272.643C207.634 273.202 207.609 273.846 207.575 274.573C207.466 276.147 207.089 277.444 206.442 278.462C205.795 279.481 204.874 280.226 203.679 280.697C202.484 281.168 201.028 281.383 199.311 281.341L192.345 281.173ZM196.507 277.612L199.268 277.679C200.021 277.697 200.65 277.597 201.155 277.381C201.66 277.164 202.045 276.813 202.311 276.328C202.577 275.843 202.729 275.202 202.766 274.406C202.812 273.916 202.845 273.476 202.863 273.086C202.881 272.697 202.89 272.307 202.891 271.917C202.891 271.528 202.88 271.095 202.857 270.62C202.849 269.467 202.559 268.616 201.985 268.069C201.41 267.521 200.545 267.233 199.389 267.205L196.76 267.142L196.507 277.612ZM211.166 281.627C210.972 281.622 210.816 281.555 210.697 281.425C210.577 281.295 210.519 281.145 210.524 280.976L210.922 264.457C210.926 264.271 210.991 264.12 211.117 264.004C211.242 263.889 211.401 263.833 211.594 263.838L223.87 264.134C224.063 264.138 224.219 264.202 224.339 264.323C224.458 264.445 224.516 264.599 224.512 264.785L224.454 267.174C224.45 267.361 224.385 267.512 224.259 267.627C224.133 267.743 223.974 267.798 223.782 267.794L215.397 267.591L215.314 271.022L223.121 271.21C223.313 271.215 223.47 271.282 223.589 271.412C223.709 271.542 223.767 271.701 223.762 271.887L223.709 274.098C223.705 274.268 223.64 274.414 223.514 274.538C223.388 274.662 223.229 274.722 223.036 274.718L215.229 274.529L215.144 278.062L223.74 278.269C223.932 278.274 224.089 278.337 224.209 278.458C224.328 278.58 224.386 278.734 224.381 278.92L224.324 281.309C224.32 281.479 224.255 281.625 224.129 281.75C224.003 281.874 223.844 281.933 223.651 281.929L211.166 281.628L211.166 281.627ZM227.962 282.032C227.769 282.027 227.613 281.96 227.493 281.83C227.374 281.7 227.316 281.55 227.32 281.381L227.718 264.862C227.723 264.676 227.788 264.525 227.913 264.409C228.039 264.294 228.198 264.238 228.391 264.243L235.54 264.415C237.819 264.47 239.594 265.018 240.867 266.057C242.139 267.096 242.753 268.539 242.709 270.385C242.68 271.589 242.357 272.598 241.741 273.413C241.125 274.229 240.322 274.838 239.33 275.237L242.781 281.576C242.831 281.678 242.855 281.772 242.853 281.857C242.85 281.993 242.79 282.114 242.673 282.221C242.556 282.329 242.428 282.381 242.288 282.377L238.792 282.293C238.459 282.285 238.216 282.199 238.062 282.034C237.908 281.869 237.797 281.718 237.731 281.581L234.869 275.918L232.188 275.853L232.052 281.495C232.047 281.664 231.978 281.811 231.844 281.935C231.709 282.059 231.545 282.118 231.353 282.114L227.962 282.032ZM232.275 272.245L235.298 272.317C236.121 272.337 236.744 272.157 237.165 271.778C237.586 271.398 237.805 270.877 237.821 270.217C237.837 269.556 237.652 269.018 237.268 268.602C236.883 268.186 236.262 267.967 235.403 267.946L232.38 267.874L232.275 272.245Z" fill="#4D4D4D"/>
<path d="M103.324 302.778C103.149 302.774 102.997 302.704 102.869 302.569C102.741 302.434 102.679 302.279 102.683 302.103L103.097 284.957C103.102 284.764 103.171 284.607 103.305 284.487C103.439 284.367 103.594 284.309 103.769 284.313L106.603 284.381C106.901 284.389 107.118 284.469 107.254 284.622C107.39 284.775 107.475 284.895 107.508 284.984L111.927 293.405L116.746 285.207C116.801 285.12 116.895 285.004 117.03 284.857C117.165 284.711 117.381 284.641 117.679 284.648L120.487 284.716C120.679 284.721 120.84 284.786 120.968 284.913C121.096 285.039 121.158 285.199 121.153 285.392L120.74 302.538C120.736 302.714 120.666 302.867 120.532 302.995C120.397 303.124 120.234 303.186 120.041 303.181L116.918 303.106C116.726 303.101 116.566 303.032 116.438 302.897C116.31 302.761 116.248 302.606 116.252 302.43L116.49 292.538L113.418 297.98C113.326 298.137 113.209 298.275 113.067 298.394C112.923 298.514 112.729 298.571 112.485 298.565L111.12 298.532C110.875 298.526 110.684 298.46 110.547 298.334C110.41 298.207 110.3 298.064 110.216 297.903L107.383 292.319L107.145 302.21C107.141 302.387 107.076 302.539 106.95 302.668C106.824 302.797 106.665 302.859 106.473 302.854L103.324 302.778ZM123.348 303.261C123.208 303.258 123.083 303.198 122.972 303.08C122.861 302.964 122.807 302.835 122.81 302.694C122.812 302.606 122.823 302.527 122.842 302.457L129.418 285.671C129.475 285.479 129.588 285.31 129.759 285.164C129.928 285.019 130.162 284.95 130.46 284.957L134.344 285.05C134.641 285.058 134.871 285.138 135.034 285.292C135.196 285.445 135.302 285.619 135.349 285.814L141.083 302.897C141.116 302.968 141.131 303.048 141.129 303.136C141.126 303.277 141.066 303.402 140.949 303.514C140.833 303.626 140.696 303.679 140.539 303.676L137.311 303.598C137.048 303.591 136.853 303.521 136.725 303.386C136.597 303.251 136.516 303.13 136.484 303.023L135.525 300.308L128.518 300.139L127.456 302.806C127.418 302.91 127.336 303.027 127.211 303.156C127.085 303.285 126.874 303.346 126.576 303.339L123.348 303.261ZM129.686 296.366L134.567 296.484L132.294 289.461L129.686 296.366ZM143.845 303.755C143.652 303.751 143.496 303.681 143.377 303.546C143.258 303.411 143.2 303.256 143.204 303.08L143.618 285.934C143.623 285.74 143.687 285.584 143.813 285.463C143.938 285.343 144.097 285.285 144.29 285.29L147.807 285.375C147.999 285.379 148.16 285.445 148.288 285.571C148.416 285.698 148.478 285.858 148.473 286.051L148.06 303.197C148.056 303.373 147.986 303.525 147.852 303.654C147.718 303.783 147.554 303.845 147.362 303.84L143.845 303.755ZM152.348 303.96C152.155 303.956 151.999 303.886 151.88 303.751C151.761 303.616 151.703 303.461 151.708 303.285L152.121 286.139C152.126 285.946 152.191 285.789 152.316 285.668C152.441 285.548 152.6 285.49 152.793 285.495L155.575 285.562C155.872 285.569 156.085 285.641 156.213 285.776C156.341 285.911 156.422 286.014 156.455 286.085L162.615 296.369L162.855 286.398C162.86 286.205 162.925 286.048 163.05 285.927C163.175 285.807 163.334 285.749 163.527 285.754L166.676 285.83C166.869 285.835 167.025 285.9 167.144 286.026C167.264 286.152 167.321 286.312 167.317 286.505L166.904 303.625C166.899 303.819 166.834 303.98 166.708 304.109C166.583 304.238 166.424 304.3 166.231 304.295L163.423 304.228C163.143 304.221 162.939 304.146 162.812 304.002C162.684 303.858 162.603 303.759 162.569 303.706L156.401 293.791L156.169 303.393C156.165 303.569 156.1 303.722 155.975 303.85C155.849 303.979 155.69 304.042 155.497 304.037L152.348 303.961L152.348 303.96ZM175.259 304.513C175.066 304.508 174.911 304.438 174.792 304.303C174.672 304.169 174.615 304.013 174.619 303.837L174.948 290.173L170.277 290.06C170.084 290.056 169.928 289.986 169.809 289.851C169.69 289.716 169.632 289.561 169.636 289.385L169.704 286.563C169.709 286.369 169.774 286.212 169.9 286.092C170.025 285.972 170.184 285.914 170.377 285.919L184.496 286.259C184.689 286.264 184.845 286.329 184.964 286.455C185.083 286.581 185.141 286.741 185.137 286.935L185.069 289.757C185.064 289.933 184.999 290.085 184.874 290.214C184.748 290.343 184.589 290.405 184.396 290.401L179.725 290.288L179.395 303.952C179.391 304.129 179.326 304.281 179.201 304.41C179.075 304.539 178.916 304.601 178.723 304.596L175.259 304.513ZM187.751 304.814C187.559 304.809 187.403 304.739 187.284 304.605C187.164 304.47 187.107 304.315 187.111 304.138L187.524 286.992C187.529 286.799 187.594 286.642 187.72 286.522C187.845 286.402 188.004 286.344 188.197 286.349L200.453 286.644C200.645 286.649 200.801 286.714 200.92 286.84C201.04 286.966 201.098 287.126 201.093 287.32L201.033 289.799C201.028 289.992 200.963 290.149 200.838 290.269C200.712 290.39 200.553 290.447 200.361 290.443L191.989 290.241L191.903 293.802L199.698 293.99C199.89 293.995 200.046 294.064 200.166 294.199C200.285 294.334 200.342 294.499 200.338 294.692L200.282 296.987C200.278 297.163 200.213 297.315 200.087 297.444C199.962 297.573 199.802 297.635 199.61 297.631L191.816 297.443L191.727 301.109L200.309 301.316C200.501 301.321 200.657 301.386 200.777 301.512C200.896 301.638 200.954 301.798 200.949 301.991L200.89 304.471C200.885 304.647 200.82 304.799 200.695 304.928C200.569 305.057 200.41 305.119 200.218 305.115L187.751 304.814L187.751 304.814ZM204.522 305.218C204.329 305.213 204.173 305.144 204.054 305.009C203.934 304.874 203.877 304.719 203.881 304.543L204.295 287.397C204.299 287.203 204.364 287.046 204.49 286.926C204.615 286.806 204.774 286.748 204.967 286.753L207.749 286.82C208.046 286.827 208.259 286.898 208.387 287.034C208.515 287.169 208.596 287.272 208.629 287.343L214.788 297.627L215.029 287.656C215.033 287.462 215.098 287.305 215.224 287.185C215.349 287.065 215.508 287.007 215.701 287.012L218.85 287.088C219.043 287.092 219.199 287.158 219.318 287.284C219.437 287.41 219.495 287.57 219.49 287.763L219.078 304.883C219.073 305.077 219.008 305.238 218.882 305.367C218.756 305.496 218.597 305.558 218.405 305.553L215.597 305.485C215.317 305.479 215.113 305.403 214.985 305.26C214.857 305.116 214.777 305.017 214.743 304.964L208.575 295.049L208.343 304.651C208.339 304.827 208.273 304.979 208.148 305.108C208.022 305.237 207.863 305.299 207.671 305.295L204.522 305.219L204.522 305.218ZM221.685 305.632C221.545 305.629 221.42 305.569 221.309 305.451C221.198 305.334 221.144 305.205 221.147 305.065C221.15 304.977 221.16 304.898 221.18 304.828L227.755 288.042C227.812 287.85 227.926 287.681 228.096 287.535C228.266 287.39 228.499 287.32 228.797 287.328L232.681 287.421C232.978 287.428 233.208 287.509 233.371 287.662C233.533 287.816 233.639 287.99 233.686 288.185L239.42 305.268C239.453 305.339 239.468 305.419 239.466 305.506C239.463 305.647 239.403 305.773 239.286 305.885C239.17 305.997 239.033 306.05 238.876 306.046L235.648 305.969C235.385 305.962 235.19 305.892 235.062 305.757C234.934 305.621 234.853 305.501 234.821 305.394L233.862 302.679L226.855 302.51L225.793 305.177C225.755 305.281 225.674 305.398 225.548 305.527C225.422 305.656 225.211 305.717 224.914 305.71L221.685 305.632ZM228.023 298.737L232.904 298.855L230.631 291.832L228.023 298.737ZM242.182 306.126C241.989 306.121 241.833 306.052 241.714 305.917C241.595 305.782 241.537 305.627 241.542 305.451L241.955 288.305C241.96 288.111 242.025 287.954 242.15 287.834C242.275 287.714 242.435 287.656 242.627 287.661L245.409 287.728C245.706 287.735 245.919 287.806 246.047 287.941C246.175 288.077 246.256 288.18 246.289 288.251L252.449 298.535L252.689 288.564C252.694 288.37 252.759 288.213 252.884 288.093C253.009 287.973 253.168 287.915 253.361 287.92L256.51 287.996C256.703 288 256.859 288.066 256.978 288.192C257.098 288.318 257.155 288.478 257.151 288.671L256.738 305.791C256.733 305.985 256.668 306.146 256.542 306.275C256.417 306.404 256.258 306.466 256.065 306.461L253.257 306.393C252.977 306.387 252.773 306.311 252.646 306.168C252.518 306.024 252.437 305.925 252.403 305.872L246.235 295.957L246.003 305.559C245.999 305.735 245.934 305.887 245.809 306.016C245.683 306.145 245.524 306.207 245.331 306.203L242.182 306.127L242.182 306.126ZM267.922 307.011C266.277 306.971 264.866 306.664 263.689 306.09C262.513 305.517 261.609 304.694 260.979 303.623C260.348 302.552 260.016 301.233 259.984 299.666C259.984 298.945 259.994 298.171 260.014 297.344C260.034 296.518 260.062 295.727 260.097 294.971C260.204 293.442 260.603 292.15 261.294 291.094C261.985 290.037 262.931 289.25 264.134 288.734C265.337 288.217 266.752 287.978 268.38 288.018C269.534 288.045 270.598 288.216 271.571 288.53C272.543 288.844 273.391 289.287 274.112 289.858C274.834 290.43 275.391 291.113 275.783 291.905C276.175 292.697 276.368 293.586 276.362 294.571C276.376 294.73 276.325 294.861 276.208 294.963C276.092 295.066 275.955 295.116 275.798 295.112L272.255 295.026C272.027 295.021 271.853 294.969 271.733 294.869C271.613 294.77 271.512 294.586 271.432 294.321C271.209 293.383 270.826 292.735 270.284 292.379C269.741 292.023 269.066 291.836 268.262 291.816C267.3 291.793 266.532 292.043 265.959 292.566C265.386 293.089 265.059 293.974 264.976 295.221C264.889 296.662 264.853 298.139 264.869 299.653C264.892 300.903 265.176 301.802 265.723 302.352C266.27 302.902 267.025 303.188 267.987 303.212C268.792 303.231 269.478 303.072 270.047 302.733C270.615 302.395 271.024 301.772 271.274 300.863C271.35 300.6 271.455 300.423 271.589 300.329C271.722 300.236 271.903 300.191 272.131 300.197L275.673 300.282C275.831 300.286 275.965 300.342 276.077 300.45C276.188 300.559 276.232 300.692 276.211 300.85C276.17 301.834 275.934 302.713 275.504 303.485C275.074 304.258 274.485 304.912 273.737 305.448C272.989 305.985 272.121 306.386 271.135 306.653C270.147 306.919 269.077 307.038 267.922 307.011ZM279.475 307.025C279.283 307.021 279.127 306.951 279.008 306.816C278.888 306.681 278.831 306.526 278.835 306.35L279.248 289.204C279.253 289.011 279.318 288.854 279.444 288.733C279.569 288.613 279.728 288.555 279.921 288.56L292.177 288.855C292.369 288.86 292.525 288.926 292.645 289.052C292.764 289.178 292.822 289.338 292.817 289.531L292.757 292.01C292.753 292.204 292.687 292.361 292.562 292.481C292.436 292.601 292.278 292.659 292.085 292.654L283.713 292.452L283.627 296.014L291.422 296.202C291.614 296.206 291.77 296.276 291.89 296.411C292.009 296.546 292.066 296.71 292.062 296.903L292.006 299.198C292.002 299.374 291.937 299.527 291.811 299.656C291.686 299.784 291.526 299.847 291.334 299.842L283.54 299.654L283.451 303.321L292.033 303.528C292.226 303.532 292.381 303.598 292.501 303.724C292.62 303.85 292.678 304.01 292.673 304.203L292.614 306.682C292.609 306.859 292.544 307.011 292.419 307.14C292.293 307.269 292.134 307.331 291.942 307.326L279.475 307.026L279.475 307.025Z" fill="#4D4D4D"/>
</svg>
