<svg width="531" height="456" viewBox="0 0 531 456" fill="none" xmlns="http://www.w3.org/2000/svg">
<path d="M35.9992 205.414L42.5331 211.946C45.605 214.991 50.5513 214.991 53.5965 211.946L60.1305 205.414C63.1758 202.369 63.1758 197.423 60.1305 194.377L53.5965 187.817C50.5513 184.772 45.605 184.772 42.5331 187.817L35.9992 194.377C32.9539 197.423 32.9539 202.369 35.9992 205.414ZM59.3579 123.218L63.5156 127.373C65.4697 129.311 68.6159 129.311 70.554 127.373L74.7118 123.218C76.6499 121.28 76.6499 118.134 74.7118 116.196L70.554 112.022C68.6159 110.084 65.4697 110.084 63.5156 112.022L59.3579 116.196C57.4197 118.134 57.4197 121.28 59.3579 123.218ZM11.3714 151.672L15.0592 155.36C16.7929 157.08 19.586 157.08 21.3064 155.36L24.9942 151.672C26.7146 149.951 26.7146 147.158 24.9942 145.44L21.3064 141.737C19.586 140.016 16.7956 140.016 15.0592 141.737L11.3714 145.44C9.65094 147.158 9.65094 149.951 11.3714 151.672Z" fill="#FFEAEA"/>
<path d="M219.91 103.779C249.563 103.779 273.602 80.5471 273.602 51.8894C273.602 23.2316 249.563 0 219.91 0C190.257 0 166.218 23.2316 166.218 51.8894C166.218 80.5471 190.257 103.779 219.91 103.779Z" fill="#FEF0F1"/>
<path d="M245.125 64.1127L232.63 76.1876C232.593 76.2222 232.535 76.2222 232.497 76.1876L194.698 39.6575L207.193 27.5825C207.23 27.548 207.288 27.548 207.325 27.5825L245.125 64.1127Z" fill="#C52127"/>
<path d="M194.698 64.1127L207.193 76.1876C207.23 76.2222 207.288 76.2222 207.325 76.1876L245.125 39.6575L232.63 27.5825C232.593 27.548 232.535 27.548 232.497 27.5825L194.698 64.1127Z" fill="#C52127"/>
<path d="M207.72 201.846C207.72 201.846 214.968 251.778 228.139 263.367C228.139 263.367 169.315 272.543 147.717 264.18C126.118 255.817 163.344 213.148 163.344 213.148L207.72 201.846Z" fill="#030047"/>
<path d="M243.713 279.011C243.713 279.011 183.797 265.487 163.558 265.492C140.818 265.497 73.5059 278.287 73.5059 278.287L61.4336 440.165H243.713V279.011Z" fill="#F7666B"/>
<path opacity="0.4" d="M205.834 337.317C210.692 337.317 214.63 333.379 214.63 328.521C214.63 323.663 210.692 319.725 205.834 319.725C200.976 319.725 197.038 323.663 197.038 328.521C197.038 333.379 200.976 337.317 205.834 337.317Z" fill="white"/>
<path opacity="0.4" d="M192.707 359.739C195.099 359.739 197.038 357.8 197.038 355.408C197.038 353.017 195.099 351.078 192.707 351.078C190.316 351.078 188.377 353.017 188.377 355.408C188.377 357.8 190.316 359.739 192.707 359.739Z" fill="white"/>
<path opacity="0.4" d="M219.91 381.573C222.826 381.573 225.191 379.209 225.191 376.293C225.191 373.376 222.826 371.012 219.91 371.012C216.993 371.012 214.629 373.376 214.629 376.293C214.629 379.209 216.993 381.573 219.91 381.573Z" fill="white"/>
<path opacity="0.4" d="M216.406 308.181C219.322 308.181 221.687 305.816 221.687 302.9C221.687 299.983 219.322 297.619 216.406 297.619C213.489 297.619 211.125 299.983 211.125 302.9C211.125 305.816 213.489 308.181 216.406 308.181Z" fill="white"/>
<path opacity="0.4" d="M147.071 358.559C151.802 358.559 155.638 354.723 155.638 349.991C155.638 345.26 151.802 341.424 147.071 341.424C142.339 341.424 138.503 345.26 138.503 349.991C138.503 354.723 142.339 358.559 147.071 358.559Z" fill="white"/>
<path opacity="0.4" d="M193.665 422.373C200.385 422.373 205.833 416.925 205.833 410.205C205.833 403.485 200.385 398.037 193.665 398.037C186.945 398.037 181.497 403.485 181.497 410.205C181.497 416.925 186.945 422.373 193.665 422.373Z" fill="white"/>
<path opacity="0.4" d="M139.251 418.964C145.03 418.964 149.715 414.279 149.715 408.5C149.715 402.722 145.03 398.037 139.251 398.037C133.473 398.037 128.788 402.722 128.788 408.5C128.788 414.279 133.473 418.964 139.251 418.964Z" fill="white"/>
<path opacity="0.4" d="M109.489 313.537C114.822 313.537 119.145 309.214 119.145 303.881C119.145 298.548 114.822 294.225 109.489 294.225C104.156 294.225 99.833 298.548 99.833 303.881C99.833 309.214 104.156 313.537 109.489 313.537Z" fill="white"/>
<path opacity="0.4" d="M105.029 376.293C111.092 376.293 116.008 371.378 116.008 365.314C116.008 359.251 111.092 354.336 105.029 354.336C98.966 354.336 94.0508 359.251 94.0508 365.314C94.0508 371.378 98.966 376.293 105.029 376.293Z" fill="white"/>
<path d="M172.66 243.311L174.163 267.867C174.163 267.867 194.333 312.594 167.772 315.225C141.211 317.856 127.557 309.713 126.176 301.443C124.798 293.175 132.19 268.993 132.19 268.993L133.066 225.895L172.66 243.311Z" fill="white"/>
<path d="M157.964 316.796C137.218 316.796 126.43 309.415 125.13 301.617C123.768 293.442 130.463 271.029 131.132 268.825L132.009 225.875C132.017 225.52 132.2 225.19 132.5 224.999C132.8 224.808 133.177 224.779 133.501 224.922L173.089 242.336C173.453 242.496 173.7 242.849 173.724 243.244L175.216 267.607C176.382 270.24 187.498 296.137 179.979 309.141C177.563 313.323 173.49 315.726 167.88 316.281C164.355 316.634 161.049 316.796 157.964 316.796ZM134.101 227.513L133.256 269.016C133.254 269.115 133.238 269.213 133.209 269.306C133.137 269.545 125.907 293.342 127.23 301.269C128.605 309.532 142.942 316.615 167.668 314.167C172.559 313.684 176.079 311.634 178.134 308.082C185.348 295.606 173.315 268.578 173.193 268.305C173.14 268.188 173.108 268.061 173.1 267.933L171.637 244.025L134.101 227.513Z" fill="#030047"/>
<path d="M114.836 177.859L183.523 146.824C184.673 147.833 206.606 171.529 208.603 211.42C209.991 239.194 197.337 250.04 176.944 249.498C152.641 248.851 133.126 232.806 124.92 209.92C121.343 199.943 118.805 189.06 114.836 177.859Z" fill="white"/>
<path d="M178.373 250.577C177.892 250.577 177.406 250.572 176.915 250.559C152.906 249.919 132.598 234.483 123.919 210.274C122.14 205.315 120.642 200.22 119.057 194.828C117.472 189.43 115.829 183.849 113.835 178.21C113.652 177.69 113.896 177.113 114.401 176.885L183.088 145.851C183.468 145.678 183.914 145.745 184.227 146.021C184.461 146.225 207.583 169.706 209.667 211.366C210.374 225.458 207.493 235.919 201.108 242.456C195.837 247.848 188.194 250.577 178.373 250.577ZM116.163 178.422C118.033 183.799 119.591 189.095 121.099 194.228C122.676 199.591 124.166 204.654 125.923 209.558C134.3 232.922 153.859 247.816 176.974 248.432C186.935 248.698 194.489 246.183 199.586 240.969C205.539 234.873 208.218 224.951 207.543 211.472C205.695 174.535 186.476 151.644 183.274 148.102L116.163 178.422Z" fill="#030047"/>
<path d="M90.4141 275.211L83.6491 390.796L55.4079 376.401L29.649 363.267L19.5361 358.119L52.0466 296.191C56.2309 288.247 63.195 282.119 71.6193 278.986L73.507 278.291L90.4141 275.211Z" fill="#F7666B"/>
<path opacity="0.4" d="M60.1457 365.321C60.1457 369.675 58.3297 373.605 55.4092 376.398L29.6504 363.263C30.6434 355.76 37.0552 349.988 44.8264 349.988C53.2932 349.988 60.1457 356.854 60.1457 365.321Z" fill="white"/>
<path opacity="0.4" d="M58.1864 330.074C62.5193 330.074 66.0319 326.561 66.0319 322.228C66.0319 317.895 62.5193 314.383 58.1864 314.383C53.8534 314.383 50.3408 317.895 50.3408 322.228C50.3408 326.561 53.8534 330.074 58.1864 330.074Z" fill="white"/>
<path d="M83.6456 391.859C83.481 391.859 83.3138 391.819 83.1624 391.742L19.0468 359.064C18.7946 358.934 18.6034 358.711 18.5158 358.438C18.4308 358.167 18.4574 357.872 18.5875 357.62L35.3193 325.758C35.5901 325.237 36.2326 325.035 36.7557 325.311C37.276 325.585 37.4752 326.227 37.2044 326.748L20.9743 357.655L82.6792 389.103L86.4865 324.085C86.521 323.498 87.0122 323.049 87.6122 323.084C88.199 323.118 88.645 323.623 88.6132 324.207L84.7076 390.853C84.6864 391.211 84.4873 391.535 84.174 391.713C84.012 391.811 83.8288 391.859 83.6456 391.859Z" fill="#030047"/>
<path d="M378.704 409.774C375.98 419.093 370.348 426.952 362.96 432.482C355.584 438.013 346.451 441.22 336.733 441.22H187.475L187.573 440.368H127.222C125.334 440.084 123.805 438.695 122.91 437.163C122.3 436.128 121.989 434.936 122.103 433.675C122.329 430.483 125.053 427.873 128.26 427.988H139.183L118.885 427.889C116.559 427.889 114.319 426.74 113.127 424.727C113.113 424.714 113.113 424.698 113.097 424.685C112.487 423.649 112.176 422.457 112.288 421.196C112.513 418.005 115.237 415.395 118.444 415.509H139.18L108.201 415.411C106.314 415.127 104.782 413.738 103.89 412.204C103.279 411.168 102.968 409.976 103.08 408.715C103.306 405.524 106.03 403.097 109.237 403.211L139.18 402.927H117.409C115.521 402.643 113.989 401.254 113.097 399.722C112.487 398.687 112.176 397.495 112.288 396.234C112.513 393.042 115.237 390.616 118.444 390.73L155.636 390.446L141.054 383.155C140.104 382.574 139.366 381.806 138.814 380.885C137.863 379.255 137.651 377.184 138.36 375.296C139.751 371.566 144.089 369.936 147.607 371.794L194.016 385.438V385.425L268.837 388.149L293.757 318.846L360.477 360.773C376.718 371.279 384.136 391.208 378.704 409.774Z" fill="white"/>
<path d="M336.731 442.284H187.475C187.172 442.284 186.882 442.154 186.681 441.929C186.556 441.788 186.471 441.615 186.434 441.435H127.219C127.166 441.435 127.113 441.432 127.063 441.424C125.071 441.124 123.176 439.736 121.989 437.704C121.24 436.433 120.914 435.007 121.041 433.584C121.169 431.787 121.968 430.167 123.168 428.977L118.875 428.956C116.121 428.956 113.575 427.557 112.226 425.303C112.208 425.279 112.192 425.253 112.176 425.226C111.427 423.952 111.098 422.526 111.226 421.1C111.353 419.3 112.152 417.68 113.355 416.488L108.196 416.472C108.143 416.472 108.093 416.467 108.042 416.462C106.051 416.162 104.155 414.771 102.968 412.74C102.22 411.47 101.891 410.045 102.018 408.619C102.286 404.865 105.528 402.011 109.271 402.149L113.62 402.106C113.071 401.578 112.58 400.957 112.173 400.258C111.425 398.989 111.098 397.561 111.226 396.138C111.491 392.384 114.68 389.529 118.479 389.668L151.194 389.418L140.577 384.108C139.427 383.41 138.553 382.526 137.9 381.434C136.761 379.48 136.565 377.051 137.364 374.924C138.129 372.872 139.743 371.244 141.79 370.464C143.813 369.694 146.072 369.816 148.005 370.804L194.136 384.366L268.102 387.058L292.759 318.487C292.867 318.184 293.109 317.945 293.412 317.842C293.717 317.736 294.054 317.775 294.325 317.948L361.045 359.876C377.57 370.57 385.246 391.213 379.726 410.082C376.986 419.451 371.41 427.496 363.597 433.345C355.791 439.189 346.501 442.284 336.731 442.284ZM188.616 440.158H336.733C346.037 440.158 354.886 437.211 362.322 431.633C369.764 426.062 375.074 418.4 377.684 409.477C382.941 391.502 375.629 371.842 359.901 361.663L294.312 320.446L269.838 388.505C269.681 388.94 269.259 389.224 268.797 389.208L194.131 386.49C193.993 386.505 193.852 386.495 193.714 386.455L147.302 372.811C147.233 372.79 147.169 372.763 147.105 372.731C145.693 371.985 144.025 371.882 142.541 372.447C141.065 373.01 139.902 374.181 139.35 375.665C138.771 377.202 138.912 378.952 139.724 380.346C140.2 381.14 140.818 381.764 141.601 382.244L156.103 389.49C156.544 389.71 156.775 390.201 156.663 390.682C156.552 391.16 156.127 391.502 155.636 391.505L118.444 391.789C115.731 391.696 113.527 393.677 113.342 396.302C113.251 397.301 113.482 398.288 114.005 399.178C114.855 400.635 116.151 401.631 117.486 401.859H139.175C139.761 401.859 140.237 402.332 140.239 402.919C140.242 403.505 139.772 403.981 139.185 403.989L109.242 404.273C106.561 404.177 104.325 406.163 104.137 408.789C104.046 409.787 104.277 410.775 104.8 411.662C105.65 413.119 106.948 414.115 108.284 414.346L139.177 414.444C139.764 414.447 140.239 414.922 140.239 415.509C140.237 416.095 139.764 416.571 139.175 416.571H118.437C115.845 416.48 113.533 418.586 113.342 421.27C113.251 422.271 113.469 423.219 113.987 424.114C113.989 424.116 113.992 424.119 113.992 424.122C114.008 424.143 114.021 424.164 114.035 424.185C114.998 425.815 116.854 426.827 118.877 426.827L139.18 426.925C139.767 426.928 140.239 427.406 140.239 427.993C140.237 428.579 139.761 429.055 139.175 429.055H128.252C125.671 428.964 123.348 431.07 123.157 433.754C123.067 434.752 123.298 435.74 123.821 436.629C124.67 438.087 125.966 439.082 127.302 439.311H187.57C187.873 439.311 188.162 439.441 188.364 439.667C188.497 439.805 188.579 439.975 188.616 440.158Z" fill="#030047"/>
<path d="M243.713 279.014L305.893 319.725L268.832 388.14L206.049 354.58L243.713 279.014Z" fill="#F7666B"/>
<path opacity="0.4" d="M269.421 322.712C274.02 322.712 277.749 318.983 277.749 314.383C277.749 309.784 274.02 306.055 269.421 306.055C264.821 306.055 261.092 309.784 261.092 314.383C261.092 318.983 264.821 322.712 269.421 322.712Z" fill="white"/>
<path opacity="0.4" d="M260.398 359.739C262.789 359.739 264.728 357.8 264.728 355.408C264.728 353.017 262.789 351.078 260.398 351.078C258.006 351.078 256.067 353.017 256.067 355.408C256.067 357.8 258.006 359.739 260.398 359.739Z" fill="white"/>
<path opacity="0.4" d="M286.252 358.976C292.233 358.976 297.081 354.127 297.081 348.146C297.081 342.165 292.233 337.316 286.252 337.316C280.271 337.316 275.422 342.165 275.422 348.146C275.422 354.127 280.271 358.976 286.252 358.976Z" fill="white"/>
<path d="M268.832 389.203C268.662 389.203 268.492 389.163 268.332 389.078L244.448 376.313C243.93 376.036 243.734 375.391 244.013 374.874C244.289 374.356 244.934 374.159 245.452 374.435L268.401 386.704L304.491 320.08L274.343 300.34C273.852 300.018 273.714 299.357 274.035 298.866C274.359 298.375 275.015 298.237 275.509 298.558L306.474 318.834C306.936 319.137 307.09 319.745 306.827 320.231L269.769 388.645C269.575 389.001 269.209 389.203 268.832 389.203Z" fill="#030047"/>
<path d="M524.806 440.156H0V442.283H524.806V440.156Z" fill="#030047"/>
<path d="M349.143 419.264V440.172H180.396C175.489 440.172 171.518 436.2 171.518 431.293V430.441C171.518 424.271 176.525 419.264 182.679 419.264H349.143Z" fill="#121535"/>
<path d="M459.757 319.725H300.292C292.946 319.725 286.394 324.339 283.919 331.255L244.946 440.169H433.882L471.176 335.944C474.007 328.04 468.15 319.725 459.757 319.725Z" fill="#121535"/>
<path d="M372.25 381.572C371.318 387.402 365.838 392.13 360.008 392.13C354.164 392.13 350.197 387.402 351.129 381.572C352.061 375.741 357.552 371.013 363.382 371.013C369.215 371.013 373.184 375.741 372.25 381.572ZM513.023 75.9941H306.751C297.411 75.9941 289.836 83.5662 289.836 92.9091V242.832C289.836 252.172 297.408 259.747 306.751 259.747H513.023C522.364 259.747 529.938 252.175 529.938 242.832V92.9091C529.936 83.5688 522.364 75.9941 513.023 75.9941Z" fill="white"/>
<path d="M141.304 200.954L143.677 205.313C143.677 205.313 154.125 193.132 156.145 179.522C156.145 179.522 197.409 187.687 208.72 167.583C223.463 141.378 166.856 120.085 136.565 136.503C103.255 154.557 99.4264 195.24 90.4711 222.106C81.5158 248.972 67.7523 257.457 74.9314 266.883C83.3185 277.896 130.113 262.273 130.113 262.273L130.907 223.325L141.304 200.954Z" fill="#030047"/>
<path d="M141.992 220.728C141.992 220.728 135.065 224.708 126.017 222.807C116.972 220.906 112.45 194.706 119.765 191.578C127.079 188.451 141.305 200.951 141.305 200.951" fill="white"/>
<path d="M131.011 224.39C129.383 224.39 127.636 224.233 125.799 223.848C119.992 222.629 116.087 213.18 115.227 204.48C114.507 197.2 116.047 192.012 119.347 190.602C127.179 187.251 141.405 199.624 142.008 200.155C142.448 200.542 142.494 201.214 142.106 201.655C141.716 202.096 141.047 202.141 140.603 201.753C136.785 198.4 125.666 190.214 120.184 192.559C117.852 193.554 116.74 198.153 117.343 204.273C118.118 212.118 121.657 220.805 126.237 221.769C134.752 223.559 141.4 219.847 141.466 219.807C141.973 219.518 142.624 219.693 142.916 220.203C143.208 220.712 143.032 221.36 142.523 221.652C142.284 221.79 137.661 224.39 131.011 224.39Z" fill="#030047"/>
<path d="M135.126 205C133.947 203.139 132.375 201.525 130.548 200.295C129.402 199.525 128.124 198.894 126.754 198.726C125.384 198.559 123.903 198.901 122.91 199.86C121.503 201.217 121.362 203.41 121.529 205.358C121.837 208.913 122.881 212.402 124.572 215.54" fill="white"/>
<path d="M124.572 216.606C124.192 216.606 123.826 216.404 123.635 216.046C121.882 212.796 120.788 209.132 120.467 205.45C120.215 202.521 120.77 200.442 122.169 199.094C123.324 197.981 125.082 197.448 126.882 197.668C128.252 197.838 129.646 198.406 131.14 199.41C133.081 200.716 134.77 202.45 136.025 204.428C136.339 204.924 136.193 205.58 135.696 205.896C135.2 206.212 134.544 206.063 134.228 205.567C133.132 203.836 131.655 202.317 129.956 201.175C128.748 200.363 127.657 199.906 126.624 199.779C125.456 199.635 124.343 199.951 123.648 200.623C122.74 201.499 122.395 203.015 122.589 205.264C122.883 208.66 123.892 212.037 125.509 215.034C125.788 215.552 125.594 216.197 125.076 216.476C124.914 216.566 124.742 216.606 124.572 216.606Z" fill="#030047"/>
<path d="M163.77 276.812L82.9964 434.671C74.7898 448.113 59.6244 455.682 43.9493 454.161C17.2293 451.567 0.131122 424.465 9.29619 399.232L23.4925 360.148L48.5265 372.9L125.999 275.74C122.837 270.902 111.731 253.77 110.553 249.174C108.397 240.665 108.596 222.749 112.085 216.14C115.573 209.529 118.865 214.014 118.865 214.014C118.865 214.014 119.375 208.68 123.631 208.637C127.887 208.582 129.106 212.792 129.106 212.792C135.573 207.857 136.396 218.45 136.396 218.45C137.148 217.117 138.284 216.493 139.503 216.265C142.694 215.654 145.644 218.195 145.856 221.442C146.082 224.774 146.48 229.641 147.162 234.022C147.885 238.703 149.231 245.592 158.436 254.173C164.648 259.948 166.748 268.882 163.77 276.812Z" fill="white"/>
<path d="M47.8524 455.413C46.5222 455.413 45.1841 455.349 43.846 455.219C30.7807 453.95 19.2686 446.856 12.2647 435.753C5.26085 424.65 3.81121 411.205 8.29286 398.867L22.4892 359.783C22.5927 359.496 22.8157 359.268 23.0998 359.156C23.3865 359.045 23.6998 359.061 23.9733 359.199L48.2347 371.555L124.688 275.675C119.304 267.418 110.611 253.689 109.523 249.436C107.447 241.234 107.346 222.835 111.145 215.64C112.536 213.004 114.142 211.602 115.916 211.469C116.816 211.403 117.594 211.679 118.21 212.042C118.9 209.956 120.509 207.598 123.621 207.569C126.703 207.534 128.657 209.504 129.581 211.196C131.092 210.338 132.481 210.181 133.718 210.736C135.72 211.631 136.665 214.188 137.103 216.107C137.735 215.672 138.47 215.374 139.309 215.218C141.072 214.881 142.843 215.319 144.301 216.444C145.841 217.634 146.794 219.429 146.921 221.372C147.256 226.289 147.694 230.492 148.217 233.859C148.846 237.937 149.9 244.76 159.166 253.397C165.713 259.482 167.914 268.82 164.768 277.186C164.755 277.223 164.739 277.26 164.72 277.297L83.9471 435.156C76.2476 447.769 62.4044 455.413 47.8524 455.413ZM24.0822 361.639L10.2974 399.594C6.04142 411.311 7.41671 424.076 14.0675 434.619C20.7183 445.162 31.6489 451.898 44.0531 453.103C59.2238 454.577 74.1502 447.122 82.0886 434.117L162.795 276.381C165.604 268.838 163.613 260.435 157.714 254.953C147.909 245.814 146.741 238.247 146.114 234.183C145.58 230.755 145.14 226.491 144.8 221.513C144.712 220.177 144.056 218.943 143 218.128C142.031 217.379 140.86 217.087 139.705 217.307C138.619 217.509 137.844 218.053 137.326 218.969C137.095 219.378 136.625 219.585 136.171 219.487C135.714 219.386 135.377 218.999 135.337 218.531C135.236 217.257 134.562 213.442 132.847 212.677C132.077 212.335 131.036 212.656 129.751 213.635C129.47 213.848 129.106 213.909 128.772 213.8C128.44 213.691 128.182 213.423 128.084 213.086C128.044 212.951 127.03 209.698 123.714 209.698C123.693 209.698 123.669 209.698 123.645 209.698C120.406 209.73 119.941 213.936 119.922 214.113C119.877 214.551 119.569 214.918 119.144 215.035C118.725 215.149 118.268 214.995 118.008 214.639C118.003 214.634 117.172 213.505 116.065 213.593C115.098 213.67 114.02 214.751 113.025 216.633C109.738 222.856 109.422 240.377 111.583 248.91C112.332 251.836 118.053 261.649 126.889 275.155C127.139 275.539 127.117 276.041 126.831 276.4L49.3578 373.56C49.0445 373.955 48.4922 374.072 48.0435 373.844L24.0822 361.639Z" fill="#030047"/>
<path d="M37.7126 385.46C37.4497 385.46 37.1895 385.364 36.9851 385.17C36.5576 384.767 36.5364 384.095 36.94 383.668L47.7591 372.169C48.1626 371.741 48.837 371.72 49.2618 372.124C49.6893 372.527 49.7105 373.199 49.3069 373.626L38.4878 385.125C38.2781 385.348 37.994 385.46 37.7126 385.46Z" fill="#030047"/>
<path d="M142.491 249.448C142.122 249.448 141.766 249.257 141.569 248.914C141.352 248.535 136.217 239.592 135.349 234.999C134.486 230.449 135.298 218.86 135.333 218.368C135.375 217.782 135.901 217.344 136.469 217.383C137.056 217.426 137.497 217.933 137.454 218.52C137.446 218.637 136.628 230.324 137.438 234.604C138.24 238.841 143.359 247.762 143.409 247.852C143.704 248.362 143.529 249.012 143.019 249.304C142.854 249.403 142.671 249.448 142.491 249.448Z" fill="#030047"/>
<path d="M132.468 252.046C132.054 252.046 131.661 251.802 131.488 251.398C131.276 250.899 126.279 239.079 125.735 232.97C125.124 226.125 127.944 213.116 128.066 212.564C128.191 211.987 128.77 211.626 129.332 211.751C129.906 211.876 130.27 212.444 130.145 213.018C130.118 213.15 127.275 226.261 127.856 232.779C128.374 238.553 133.397 250.445 133.45 250.565C133.681 251.106 133.429 251.73 132.887 251.959C132.749 252.017 132.606 252.046 132.468 252.046Z" fill="#030047"/>
<path d="M118.873 214.014C118.873 214.014 116.516 231.675 117.259 236.377C118.345 243.259 123.294 254.364 123.294 254.364" fill="white"/>
<path d="M123.295 255.426C122.888 255.426 122.501 255.19 122.323 254.794C122.118 254.335 117.302 243.481 116.206 236.541C115.449 231.741 117.722 214.6 117.817 213.872C117.894 213.291 118.412 212.879 119.012 212.959C119.594 213.036 120.002 213.572 119.925 214.154C119.902 214.329 117.6 231.714 118.309 236.209C119.363 242.87 124.216 253.817 124.266 253.928C124.505 254.465 124.264 255.094 123.727 255.333C123.587 255.397 123.441 255.426 123.295 255.426Z" fill="#030047"/>
<path d="M175.977 204.121C177.375 203.73 178.036 201.724 177.454 199.64C176.872 197.555 175.267 196.182 173.868 196.572C172.47 196.963 171.809 198.969 172.391 201.054C172.973 203.138 174.579 204.511 175.977 204.121Z" fill="#030047"/>
<path d="M170.029 193.87C172.087 191.985 175.238 191.611 178.026 192.922Z" fill="white"/>
<path d="M170.029 194.932C169.74 194.932 169.453 194.815 169.246 194.587C168.848 194.154 168.877 193.48 169.313 193.084C171.694 190.902 175.289 190.459 178.48 191.959C179.011 192.208 179.24 192.843 178.99 193.374C178.741 193.905 178.111 194.136 177.575 193.884C175.175 192.752 172.496 193.055 170.752 194.653C170.545 194.842 170.287 194.932 170.029 194.932Z" fill="#030047"/>
<path d="M197.614 201.775C199.012 201.385 199.673 199.378 199.091 197.294C198.509 195.209 196.903 193.836 195.505 194.227C194.107 194.617 193.446 196.623 194.028 198.708C194.61 200.792 196.215 202.166 197.614 201.775Z" fill="#030047"/>
<path d="M191.666 191.523C193.724 189.637 196.875 189.263 199.663 190.575Z" fill="white"/>
<path d="M191.666 192.588C191.377 192.588 191.09 192.472 190.883 192.243C190.485 191.811 190.514 191.136 190.949 190.741C193.331 188.558 196.928 188.115 200.117 189.615C200.648 189.864 200.876 190.499 200.627 191.03C200.377 191.561 199.748 191.792 199.212 191.54C196.809 190.409 194.13 190.711 192.388 192.31C192.181 192.496 191.924 192.588 191.666 192.588Z" fill="#030047"/>
<path d="M185.067 205.393C184.838 207.803 185.81 210.161 186.904 212.322C188.001 214.483 189.262 216.621 189.681 219.007C190.101 221.394 189.469 224.155 187.456 225.504" fill="white"/>
<path d="M187.459 226.567C187.116 226.567 186.779 226.403 186.575 226.095C186.248 225.606 186.378 224.945 186.867 224.618C188.55 223.49 188.967 221.079 188.635 219.189C188.308 217.33 187.419 215.621 186.477 213.807L185.956 212.801C184.846 210.616 183.747 208.017 184.005 205.29C184.06 204.706 184.583 204.273 185.165 204.331C185.752 204.387 186.179 204.905 186.126 205.492C185.919 207.677 186.883 209.926 187.854 211.84L188.364 212.83C189.339 214.705 190.348 216.643 190.73 218.822C191.285 221.958 190.231 224.929 188.048 226.389C187.868 226.509 187.661 226.567 187.459 226.567Z" fill="#030047"/>
<path d="M177.766 235.432C177.253 235.432 176.799 235.061 176.717 234.538C176.606 233.85 176.138 233.165 175.464 232.708C174.827 232.276 173.983 232.01 173.024 231.938C170.927 231.784 168.781 232.594 167.308 234.11C166.902 234.532 166.227 234.54 165.802 234.131C165.38 233.722 165.372 233.048 165.784 232.626C167.688 230.667 170.449 229.618 173.178 229.817C174.511 229.915 175.714 230.305 176.661 230.948C177.827 231.742 178.613 232.926 178.817 234.2C178.91 234.779 178.517 235.326 177.936 235.419C177.88 235.43 177.822 235.432 177.766 235.432Z" fill="#030047"/>
<path d="M243.712 385.101C243.125 385.101 242.647 384.625 242.647 384.036V312.332C242.647 311.745 243.123 311.268 243.712 311.268C244.299 311.268 244.777 311.743 244.777 312.332V384.036C244.777 384.623 244.299 385.101 243.712 385.101Z" fill="#030047"/>
<g opacity="0.4">
<path d="M261.093 429.869C260.973 429.869 260.849 429.847 260.729 429.805C260.177 429.603 259.89 428.993 260.092 428.44L291.551 341.93C294.142 334.809 300.971 330.027 308.546 330.027H448.955C452.157 330.027 455.051 331.533 456.891 334.156C458.731 336.779 459.161 340.008 458.073 343.013L446.861 373.978C446.659 374.53 446.048 374.815 445.499 374.615C444.946 374.416 444.66 373.806 444.859 373.253L456.071 342.288C456.921 339.944 456.583 337.424 455.15 335.377C453.711 333.328 451.454 332.154 448.955 332.154H308.546C301.863 332.154 295.836 336.375 293.55 342.657L262.091 429.168C261.935 429.601 261.526 429.869 261.093 429.869Z" fill="white"/>
</g>
<path d="M136.393 218.449C136.393 218.449 135.549 230.338 136.393 234.807C137.237 239.272 142.489 248.387 142.489 248.387" fill="white"/>
<path d="M129.105 212.789C129.105 212.789 126.192 226.112 126.795 232.874C127.331 238.885 132.469 250.981 132.469 250.981" fill="white"/>
<path d="M385.445 54.7635C385.445 56.9841 385.024 58.8733 384.182 60.4311C383.347 61.9889 382.207 63.1787 380.762 64.0007C379.323 64.8161 377.706 65.2237 375.909 65.2237C374.1 65.2237 372.476 64.8127 371.037 63.9908C369.599 63.1688 368.462 61.9789 367.627 60.4212C366.791 58.8634 366.374 56.9775 366.374 54.7635C366.374 52.5429 366.791 50.6536 367.627 49.0959C368.462 47.5381 369.599 46.3516 371.037 45.5362C372.476 44.7143 374.1 44.3033 375.909 44.3033C377.706 44.3033 379.323 44.7143 380.762 45.5362C382.207 46.3516 383.347 47.5381 384.182 49.0959C385.024 50.6536 385.445 52.5429 385.445 54.7635ZM381.08 54.7635C381.08 53.325 380.864 52.112 380.433 51.1243C380.009 50.1366 379.409 49.3875 378.634 48.8771C377.858 48.3667 376.95 48.1115 375.909 48.1115C374.869 48.1115 373.96 48.3667 373.185 48.8771C372.409 49.3875 371.806 50.1366 371.375 51.1243C370.951 52.112 370.739 53.325 370.739 54.7635C370.739 56.2019 370.951 57.415 371.375 58.4027C371.806 59.3904 372.409 60.1394 373.185 60.6499C373.96 61.1603 374.869 61.4155 375.909 61.4155C376.95 61.4155 377.858 61.1603 378.634 60.6499C379.409 60.1394 380.009 59.3904 380.433 58.4027C380.864 57.415 381.08 56.2019 381.08 54.7635ZM395.455 65.2436C393.911 65.2436 392.575 64.9155 391.448 64.2592C390.328 63.5964 389.463 62.675 388.853 61.495C388.243 60.3085 387.938 58.933 387.938 57.3686C387.938 55.791 388.243 54.4122 388.853 53.2322C389.463 52.0457 390.328 51.1243 391.448 50.468C392.575 49.8052 393.911 49.4737 395.455 49.4737C397 49.4737 398.332 49.8052 399.452 50.468C400.579 51.1243 401.448 52.0457 402.057 53.2322C402.667 54.4122 402.972 55.791 402.972 57.3686C402.972 58.933 402.667 60.3085 402.057 61.495C401.448 62.675 400.579 63.5964 399.452 64.2592C398.332 64.9155 397 65.2436 395.455 65.2436ZM395.475 61.9624C396.178 61.9624 396.764 61.7635 397.235 61.3658C397.706 60.9614 398.06 60.4112 398.299 59.7152C398.544 59.0192 398.667 58.227 398.667 57.3388C398.667 56.4505 398.544 55.6584 398.299 54.9624C398.06 54.2663 397.706 53.7161 397.235 53.3118C396.764 52.9074 396.178 52.7053 395.475 52.7053C394.766 52.7053 394.169 52.9074 393.685 53.3118C393.208 53.7161 392.847 54.2663 392.601 54.9624C392.363 55.6584 392.243 56.4505 392.243 57.3388C392.243 58.227 392.363 59.0192 392.601 59.7152C392.847 60.4112 393.208 60.9614 393.685 61.3658C394.169 61.7635 394.766 61.9624 395.475 61.9624ZM405.726 70.6726V49.6726H409.903V52.2379H410.091C410.277 51.8269 410.546 51.4093 410.897 50.9851C411.255 50.5542 411.719 50.1963 412.289 49.9112C412.866 49.6196 413.582 49.4737 414.437 49.4737C415.55 49.4737 416.578 49.7654 417.519 50.3487C418.46 50.9254 419.213 51.7971 419.776 52.9638C420.34 54.1238 420.621 55.5788 420.621 57.3288C420.621 59.0324 420.346 60.4709 419.796 61.6442C419.252 62.8108 418.51 63.6958 417.569 64.299C416.634 64.8956 415.587 65.1939 414.427 65.1939C413.605 65.1939 412.905 65.058 412.329 64.7862C411.759 64.5144 411.291 64.1731 410.927 63.7621C410.562 63.3445 410.284 62.9235 410.091 62.4993H409.962V70.6726H405.726ZM409.873 57.3089C409.873 58.2171 409.999 59.0092 410.251 59.6854C410.502 60.3615 410.867 60.8885 411.344 61.2663C411.822 61.6375 412.402 61.8232 413.084 61.8232C413.774 61.8232 414.357 61.6342 414.834 61.2564C415.312 60.8719 415.673 60.3416 415.918 59.6655C416.17 58.9827 416.296 58.1972 416.296 57.3089C416.296 56.4273 416.173 55.6518 415.928 54.9822C415.683 54.3127 415.322 53.7891 414.844 53.4112C414.367 53.0334 413.78 52.8445 413.084 52.8445C412.395 52.8445 411.812 53.0268 411.334 53.3913C410.864 53.7559 410.502 54.273 410.251 54.9425C409.999 55.612 409.873 56.4008 409.873 57.3089ZM423.445 70.6726V49.6726H427.621V52.2379H427.81C427.996 51.8269 428.264 51.4093 428.616 50.9851C428.974 50.5542 429.438 50.1963 430.008 49.9112C430.584 49.6196 431.3 49.4737 432.155 49.4737C433.269 49.4737 434.296 49.7654 435.238 50.3487C436.179 50.9254 436.931 51.7971 437.495 52.9638C438.058 54.1238 438.34 55.5788 438.34 57.3288C438.34 59.0324 438.065 60.4709 437.515 61.6442C436.971 62.8108 436.229 63.6958 435.288 64.299C434.353 64.8956 433.305 65.1939 432.145 65.1939C431.323 65.1939 430.624 65.058 430.047 64.7862C429.477 64.5144 429.01 64.1731 428.645 63.7621C428.281 63.3445 428.002 62.9235 427.81 62.4993H427.681V70.6726H423.445ZM427.591 57.3089C427.591 58.2171 427.717 59.0092 427.969 59.6854C428.221 60.3615 428.586 60.8885 429.063 61.2663C429.54 61.6375 430.12 61.8232 430.803 61.8232C431.493 61.8232 432.076 61.6342 432.553 61.2564C433.03 60.8719 433.392 60.3416 433.637 59.6655C433.889 58.9827 434.015 58.1972 434.015 57.3089C434.015 56.4273 433.892 55.6518 433.647 54.9822C433.402 54.3127 433.04 53.7891 432.563 53.4112C432.086 53.0334 431.499 52.8445 430.803 52.8445C430.114 52.8445 429.53 53.0268 429.053 53.3913C428.582 53.7559 428.221 54.273 427.969 54.9425C427.717 55.612 427.591 56.4008 427.591 57.3089ZM453.871 54.0277L449.993 54.2663C449.927 53.9349 449.785 53.6366 449.566 53.3714C449.347 53.0997 449.059 52.8842 448.701 52.7251C448.35 52.5594 447.929 52.4766 447.438 52.4766C446.782 52.4766 446.228 52.6158 445.778 52.8942C445.327 53.166 445.101 53.5305 445.101 53.9879C445.101 54.3525 445.247 54.6607 445.539 54.9126C445.831 55.1645 446.331 55.3667 447.04 55.5192L449.805 56.076C451.289 56.3809 452.396 56.8714 453.126 57.5476C453.855 58.2237 454.219 59.112 454.219 60.2124C454.219 61.2133 453.924 62.0916 453.334 62.8473C452.751 63.603 451.949 64.1929 450.928 64.6172C449.914 65.0348 448.744 65.2436 447.418 65.2436C445.396 65.2436 443.786 64.8227 442.586 63.9808C441.393 63.1323 440.693 61.9789 440.488 60.5206L444.654 60.3018C444.78 60.9183 445.085 61.389 445.569 61.7138C446.053 62.032 446.672 62.1911 447.428 62.1911C448.171 62.1911 448.767 62.0485 449.218 61.7635C449.675 61.4718 449.907 61.0973 449.914 60.6399C449.907 60.2554 449.745 59.9406 449.427 59.6953C449.109 59.4434 448.618 59.2512 447.955 59.1186L445.31 58.5916C443.819 58.2933 442.708 57.7763 441.979 57.0405C441.257 56.3047 440.895 55.3667 440.895 54.2266C440.895 53.2455 441.161 52.4003 441.691 51.6911C442.228 50.9818 442.98 50.4349 443.948 50.0504C444.922 49.666 446.063 49.4737 447.368 49.4737C449.297 49.4737 450.815 49.8814 451.922 50.6967C453.036 51.5121 453.686 52.6224 453.871 54.0277ZM401.558 99.2038C400.901 99.2038 400.338 98.9718 399.867 98.5078C399.403 98.0372 399.171 97.4737 399.171 96.8175C399.171 96.1679 399.403 95.611 399.867 95.147C400.338 94.683 400.901 94.451 401.558 94.451C402.194 94.451 402.751 94.683 403.228 95.147C403.705 95.611 403.944 96.1679 403.944 96.8175C403.944 97.255 403.831 97.656 403.606 98.0206C403.387 98.3786 403.099 98.6669 402.741 98.8857C402.383 99.0978 401.989 99.2038 401.558 99.2038ZM409.898 99.2038C409.241 99.2038 408.678 98.9718 408.207 98.5078C407.743 98.0372 407.511 97.4737 407.511 96.8175C407.511 96.1679 407.743 95.611 408.207 95.147C408.678 94.683 409.241 94.451 409.898 94.451C410.534 94.451 411.091 94.683 411.568 95.147C412.045 95.611 412.284 96.1679 412.284 96.8175C412.284 97.255 412.171 97.656 411.946 98.0206C411.727 98.3786 411.439 98.6669 411.081 98.8857C410.723 99.0978 410.328 99.2038 409.898 99.2038ZM420.44 78.5817L420.052 92.8402H416.413L416.015 78.5817H420.44ZM418.232 99.2038C417.576 99.2038 417.013 98.9718 416.542 98.5078C416.071 98.0372 415.839 97.4737 415.846 96.8175C415.839 96.1679 416.071 95.611 416.542 95.147C417.013 94.683 417.576 94.451 418.232 94.451C418.862 94.451 419.416 94.683 419.893 95.147C420.37 95.611 420.612 96.1679 420.619 96.8175C420.612 97.255 420.496 97.656 420.271 98.0206C420.052 98.3786 419.764 98.6669 419.406 98.8857C419.048 99.0978 418.657 99.2038 418.232 99.2038Z" fill="#121535"/>
<path d="M513.023 260.808H306.75C296.839 260.808 288.773 252.742 288.773 242.831V92.9086C288.773 82.9949 296.837 74.9316 306.75 74.9316H513.023C522.937 74.9316 531 82.9975 531 92.9086V242.831C531 252.745 522.937 260.808 513.023 260.808ZM306.75 77.0583C298.01 77.0583 290.903 84.1684 290.903 92.9086V242.831C290.903 251.572 298.013 258.682 306.75 258.682H513.023C521.763 258.682 528.873 251.572 528.873 242.831V92.9086C528.873 84.1684 521.763 77.0583 513.023 77.0583H306.75Z" fill="#FEC4C4"/>
<path d="M513.023 75.9922H306.753C297.413 75.9922 289.838 83.5642 289.838 92.9072V108.346H529.938V92.9072C529.935 83.5669 522.363 75.9922 513.023 75.9922Z" fill="#FFEAEA"/>
<path d="M529.935 109.408H289.835C289.248 109.408 288.771 108.933 288.771 108.344V92.9048C288.771 82.991 296.834 74.9277 306.748 74.9277H513.02C522.934 74.9277 530.997 82.9936 530.997 92.9048V108.344C531 108.933 530.524 109.408 529.935 109.408ZM290.9 107.282H528.873V92.9074C528.873 84.1671 521.763 77.0571 513.023 77.0571H306.75C298.01 77.0571 290.9 84.1671 290.9 92.9074V107.282Z" fill="#FEC4C4"/>
<path d="M313.587 98.6879C316.354 98.6879 318.597 96.4449 318.597 93.678C318.597 90.911 316.354 88.668 313.587 88.668C310.82 88.668 308.577 90.911 308.577 93.678C308.577 96.4449 310.82 98.6879 313.587 98.6879Z" fill="#E89497"/>
<path d="M329.341 98.6879C332.108 98.6879 334.351 96.4449 334.351 93.678C334.351 90.911 332.108 88.668 329.341 88.668C326.574 88.668 324.331 90.911 324.331 93.678C324.331 96.4449 326.574 98.6879 329.341 98.6879Z" fill="#E89497"/>
<path d="M345.094 98.6879C347.861 98.6879 350.104 96.4449 350.104 93.678C350.104 90.911 347.861 88.668 345.094 88.668C342.327 88.668 340.084 90.911 340.084 93.678C340.084 96.4449 342.327 98.6879 345.094 98.6879Z" fill="#E89497"/>
<path d="M349.325 203.9C339.305 203.9 328.205 203.3 316.025 202.1V189.95C329.285 190.85 339.185 191.3 345.725 191.3C347.105 191.3 348.185 190.91 348.965 190.13C349.805 189.29 350.225 188.18 350.225 186.8V182.3C350.225 178.7 348.425 176.9 344.825 176.9H318.725V140H361.925V152.6H334.925V164.3H349.325C355.205 164.3 359.525 165.65 362.285 168.35C365.045 170.99 366.425 175.04 366.425 180.5V186.8C366.425 192.68 365.045 197 362.285 199.76C359.525 202.52 355.205 203.9 349.325 203.9ZM417.689 157.1C417.689 153.5 415.889 151.7 412.289 151.7H402.389C398.789 151.7 396.989 153.5 396.989 157.1V185.9C396.989 189.5 398.789 191.3 402.389 191.3H412.289C415.889 191.3 417.689 189.5 417.689 185.9V157.1ZM433.889 185.9C433.889 192.2 432.449 196.79 429.569 199.67C426.749 202.49 422.189 203.9 415.889 203.9H398.789C392.489 203.9 387.899 202.49 385.019 199.67C382.199 196.79 380.789 192.2 380.789 185.9V157.1C380.789 150.8 382.199 146.24 385.019 143.42C387.899 140.54 392.489 139.1 398.789 139.1H415.889C422.189 139.1 426.749 140.54 429.569 143.42C432.449 146.24 433.889 150.8 433.889 157.1V185.9ZM486.982 157.1C486.982 153.5 485.182 151.7 481.582 151.7H471.682C468.082 151.7 466.282 153.5 466.282 157.1V185.9C466.282 189.5 468.082 191.3 471.682 191.3H481.582C485.182 191.3 486.982 189.5 486.982 185.9V157.1ZM503.182 185.9C503.182 192.2 501.742 196.79 498.862 199.67C496.042 202.49 491.482 203.9 485.182 203.9H468.082C461.782 203.9 457.192 202.49 454.312 199.67C451.492 196.79 450.082 192.2 450.082 185.9V157.1C450.082 150.8 451.492 146.24 454.312 143.42C457.192 140.54 461.782 139.1 468.082 139.1H485.182C491.482 139.1 496.042 140.54 498.862 143.42C501.742 146.24 503.182 150.8 503.182 157.1V185.9Z" fill="#C52127"/>
<path d="M356.15 238.967C361.265 239.247 364.727 239.387 366.538 239.387C366.967 239.387 367.303 239.266 367.546 239.023C367.807 238.762 367.938 238.417 367.938 237.987V235.467H361.498C359.538 235.467 358.11 235.029 357.214 234.151C356.337 233.255 355.898 231.827 355.898 229.867V229.027C355.898 227.067 356.337 225.649 357.214 224.771C358.11 223.875 359.538 223.427 361.498 223.427H371.326V227.347H362.618C361.498 227.347 360.938 227.907 360.938 229.027V229.587C360.938 230.707 361.498 231.267 362.618 231.267H367.658C369.487 231.267 370.831 231.697 371.69 232.555C372.549 233.414 372.978 234.758 372.978 236.587V237.987C372.978 239.817 372.549 241.161 371.69 242.019C370.831 242.878 369.487 243.307 367.658 243.307C366.706 243.307 365.698 243.289 364.634 243.251L362.058 243.139C360.154 243.046 358.185 242.915 356.15 242.747V238.967ZM383.756 231.407C383.009 231.407 382.636 231.781 382.636 232.527V234.067H387.396V232.527C387.396 231.781 387.023 231.407 386.276 231.407H383.756ZM391.736 242.747C388.133 243.121 384.867 243.307 381.936 243.307C380.667 243.307 379.649 242.925 378.884 242.159C378.119 241.394 377.736 240.377 377.736 239.107V232.387C377.736 230.987 378.128 229.895 378.912 229.111C379.715 228.309 380.816 227.907 382.216 227.907H387.816C389.216 227.907 390.308 228.309 391.092 229.111C391.895 229.895 392.296 230.987 392.296 232.387V237.567H382.636V238.687C382.636 238.967 382.729 239.201 382.916 239.387C383.103 239.574 383.336 239.667 383.616 239.667C385.464 239.667 388.171 239.527 391.736 239.247V242.747ZM406.145 232.247C404.969 232.247 403.756 232.527 402.505 233.087V243.027H397.605V228.187H401.945L402.225 230.007C403.83 228.607 405.51 227.907 407.265 227.907H408.525V232.247H406.145ZM423.224 228.187H428.404L422.804 243.027H417.204L411.604 228.187H416.784L420.004 238.267L423.224 228.187ZM437.793 231.407C437.046 231.407 436.673 231.781 436.673 232.527V234.067H441.433V232.527C441.433 231.781 441.059 231.407 440.313 231.407H437.793ZM445.773 242.747C442.17 243.121 438.903 243.307 435.973 243.307C434.703 243.307 433.686 242.925 432.921 242.159C432.155 241.394 431.773 240.377 431.773 239.107V232.387C431.773 230.987 432.165 229.895 432.949 229.111C433.751 228.309 434.853 227.907 436.253 227.907H441.853C443.253 227.907 444.345 228.309 445.129 229.111C445.931 229.895 446.333 230.987 446.333 232.387V237.567H436.673V238.687C436.673 238.967 436.766 239.201 436.953 239.387C437.139 239.574 437.373 239.667 437.653 239.667C439.501 239.667 442.207 239.527 445.773 239.247V242.747ZM460.182 232.247C459.006 232.247 457.792 232.527 456.542 233.087V243.027H451.642V228.187H455.982L456.262 230.007C457.867 228.607 459.547 227.907 461.302 227.907H462.562V232.247H460.182ZM385.359 277.027H369.819V257.427H385.359V261.347H374.859V265.127H383.119V269.047H374.859V273.107H385.359V277.027ZM398.653 266.247C397.477 266.247 396.263 266.527 395.013 267.087V277.027H390.113V262.187H394.453L394.733 264.007C396.338 262.607 398.018 261.907 399.773 261.907H401.033V266.247H398.653ZM414.332 266.247C413.156 266.247 411.942 266.527 410.692 267.087V277.027H405.792V262.187H410.132L410.412 264.007C412.017 262.607 413.697 261.907 415.452 261.907H416.712V266.247H414.332ZM436.044 272.827C436.044 274.227 435.642 275.329 434.84 276.131C434.056 276.915 432.964 277.307 431.564 277.307H425.124C423.724 277.307 422.622 276.915 421.82 276.131C421.036 275.329 420.644 274.227 420.644 272.827V266.387C420.644 264.987 421.036 263.895 421.82 263.111C422.622 262.309 423.724 261.907 425.124 261.907H431.564C432.964 261.907 434.056 262.309 434.84 263.111C435.642 263.895 436.044 264.987 436.044 266.387V272.827ZM431.144 266.807C431.144 266.061 430.77 265.687 430.024 265.687H426.664C425.917 265.687 425.544 266.061 425.544 266.807V272.407C425.544 273.154 425.917 273.527 426.664 273.527H430.024C430.77 273.527 431.144 273.154 431.144 272.407V266.807ZM449.9 266.247C448.724 266.247 447.511 266.527 446.26 267.087V277.027H441.36V262.187H445.7L445.98 264.007C447.586 262.607 449.266 261.907 451.02 261.907H452.28V266.247H449.9Z" fill="#4D4D4D"/>
</svg>
